<?xml version="1.0" encoding="us-ascii" standalone="no"?><svg xmlns="http://www.w3.org/2000/svg" xmlns:xlink="http://www.w3.org/1999/xlink" contentStyleType="text/css" height="892px" preserveAspectRatio="none" style="width:728px;height:892px;background:#FFFFFF;" version="1.1" viewBox="0 0 728 892" width="728px" zoomAndPan="magnify"><defs/><g><text fill="#000000" font-family="Arial" font-size="14" font-weight="bold" lengthAdjust="spacing" textLength="420" x="147" y="23.3608">TechnoMart &#8212; High-Load &#1072;&#1088;&#1093;&#1080;&#1090;&#1077;&#1082;&#1090;&#1091;&#1088;&#1072; (10000 RPS, &lt; 200 &#1084;&#1089;)</text><!--entity users--><g id="elem_users"><ellipse cx="308" cy="51.0986" fill="#F1F1F1" rx="8" ry="8" style="stroke:#181818;stroke-width:0.5;"/><path d="M308,59.0986 L308,86.0986 M295,67.0986 L321,67.0986 M308,86.0986 L295,101.0986 M308,86.0986 L321,101.0986 " fill="none" style="stroke:#181818;stroke-width:0.5;"/><text fill="#000000" font-family="Arial" font-size="14" lengthAdjust="spacing" textLength="93" x="261.5" y="115.9595">&#1055;&#1086;&#1083;&#1100;&#1079;&#1086;&#1074;&#1072;&#1090;&#1077;&#1083;&#1080;</text><text fill="#000000" font-family="Arial" font-size="14" lengthAdjust="spacing" textLength="80" x="261.5" y="132.0581">~10000 RPS</text></g><!--entity cdn--><g id="elem_cdn"><rect fill="#F1F1F1" height="52.1973" rx="2.5" ry="2.5" style="stroke:#181818;stroke-width:0.5;" width="211" x="202.5" y="195.5986"/><text fill="#000000" font-family="Arial" font-size="14" lengthAdjust="spacing" textLength="146" x="212.5" y="218.9595">Geo-DNS / CDN / Edge</text><text fill="#000000" font-family="Arial" font-size="14" lengthAdjust="spacing" textLength="191" x="212.5" y="235.0581">&#1089;&#1090;&#1072;&#1090;&#1080;&#1082;&#1072;, &#1075;&#1077;&#1086;-&#1084;&#1072;&#1088;&#1096;&#1088;&#1091;&#1090;&#1080;&#1079;&#1072;&#1094;&#1080;&#1103;</text></g><!--entity gw--><g id="elem_gw"><rect fill="#F1F1F1" height="52.1973" rx="2.5" ry="2.5" style="stroke:#181818;stroke-width:0.5;" width="149" x="233.5" y="308.5986"/><text fill="#000000" font-family="Arial" font-size="14" lengthAdjust="spacing" textLength="80" x="243.5" y="331.9595">API Gateway</text><text fill="#000000" font-family="Arial" font-size="14" lengthAdjust="spacing" textLength="129" x="243.5" y="348.0581">rate limiting, authN/Z</text></g><!--entity cache--><g id="elem_cache"><path d="M201,824.5986 C201,814.5986 308,814.5986 308,814.5986 C308,814.5986 415,814.5986 415,824.5986 L415,865.7959 C415,875.7959 308,875.7959 308,875.7959 C308,875.7959 201,875.7959 201,865.7959 L201,824.5986 " fill="#F1F1F1" style="stroke:#181818;stroke-width:0.5;"/><path d="M201,824.5986 C201,834.5986 308,834.5986 308,834.5986 C308,834.5986 415,834.5986 415,824.5986 " fill="none" style="stroke:#181818;stroke-width:0.5;"/><text fill="#000000" font-family="Arial" font-size="14" lengthAdjust="spacing" textLength="103" x="211" y="851.9595">Semantic Cache</text><text fill="#000000" font-family="Arial" font-size="14" lengthAdjust="spacing" textLength="194" x="211" y="868.0581">Redis + &#1101;&#1084;&#1073;&#1077;&#1076;&#1076;&#1080;&#1085;&#1075;&#1080; &#1079;&#1072;&#1087;&#1088;&#1086;&#1089;&#1086;&#1074;</text></g><!--entity rec--><g id="elem_rec"><path d="M59.5,461.5986 C59.5,451.5986 146,451.5986 146,451.5986 C146,451.5986 232.5,451.5986 232.5,461.5986 L232.5,502.7959 C232.5,512.7959 146,512.7959 146,512.7959 C146,512.7959 59.5,512.7959 59.5,502.7959 L59.5,461.5986 " fill="#F1F1F1" style="stroke:#181818;stroke-width:0.5;"/><path d="M59.5,461.5986 C59.5,471.5986 146,471.5986 146,471.5986 C146,471.5986 232.5,471.5986 232.5,461.5986 " fill="none" style="stroke:#181818;stroke-width:0.5;"/><text fill="#000000" font-family="Arial" font-size="14" lengthAdjust="spacing" textLength="148" x="69.5" y="488.9595">Recommendation Store</text><text fill="#000000" font-family="Arial" font-size="14" lengthAdjust="spacing" textLength="153" x="69.5" y="505.0581">Redis (&#1075;&#1086;&#1090;&#1086;&#1074;&#1072;&#1103; &#1074;&#1099;&#1076;&#1072;&#1095;&#1072;)</text></g><!--entity q--><g id="elem_q"><path d="M366,461.0986 L558,461.0986 C563,461.0986 563,482.1973 563,482.1973 C563,482.1973 563,503.2959 558,503.2959 L366,503.2959 C361,503.2959 361,482.1973 361,482.1973 C361,482.1973 361,461.0986 366,461.0986 " fill="#F1F1F1" style="stroke:#181818;stroke-width:0.5;"/><path d="M558,461.0986 C553,461.0986 553,482.1973 553,482.1973 C553,503.2959 558,503.2959 558,503.2959 " fill="none" style="stroke:#181818;stroke-width:0.5;"/><text fill="#000000" font-family="Arial" font-size="14" lengthAdjust="spacing" textLength="182" x="366" y="479.4595">&#1054;&#1095;&#1077;&#1088;&#1077;&#1076;&#1100; &#1090;&#1103;&#1078;&#1105;&#1083;&#1099;&#1093; &#1079;&#1072;&#1087;&#1088;&#1086;&#1089;&#1086;&#1074;</text><text fill="#000000" font-family="Arial" font-size="14" lengthAdjust="spacing" textLength="139" x="366" y="495.5581">(async, queue-based)</text></g><!--entity worker--><g id="elem_worker"><rect fill="#F1F1F1" height="52.1973" rx="2.5" ry="2.5" style="stroke:#181818;stroke-width:0.5;" width="182" x="486" y="573.5986"/><text fill="#000000" font-family="Arial" font-size="14" lengthAdjust="spacing" textLength="88" x="496" y="596.9595">Async Worker</text><text fill="#000000" font-family="Arial" font-size="14" lengthAdjust="spacing" textLength="162" x="496" y="613.0581">&#1090;&#1103;&#1078;&#1105;&#1083;&#1072;&#1103; LLM-&#1075;&#1077;&#1085;&#1077;&#1088;&#1072;&#1094;&#1080;&#1103;</text></g><!--entity inf--><g id="elem_inf"><rect fill="#F1F1F1" height="52.1973" rx="2.5" ry="2.5" style="stroke:#181818;stroke-width:0.5;" width="256" x="405" y="686.5986"/><text fill="#000000" font-family="Arial" font-size="14" lengthAdjust="spacing" textLength="139" x="415" y="709.9595">Inference-&#1087;&#1086;&#1076;&#1099; (LLM)</text><text fill="#000000" font-family="Arial" font-size="14" lengthAdjust="spacing" textLength="236" x="415" y="726.0581">KEDA autoscaling &#1087;&#1086; &#1076;&#1083;&#1080;&#1085;&#1077; &#1086;&#1095;&#1077;&#1088;&#1077;&#1076;&#1080;</text></g><!--link users to cdn--><g id="link_users_cdn"><path d="M308,134.6786 C308,152.8986 308,173.4586 308,189.8986 " fill="none" id="users-to-cdn" style="stroke:#181818;stroke-width:1.0;"/><polygon fill="#181818" points="308,195.3086,312,186.3086,308,190.3086,304,186.3086,308,195.3086" style="stroke:#181818;stroke-width:1.0;"/></g><!--link cdn to gw--><g id="link_cdn_gw"><path d="M308,247.7886 C308,264.2486 308,285.8486 308,303.2486 " fill="none" id="cdn-to-gw" style="stroke:#181818;stroke-width:1.0;"/><polygon fill="#181818" points="308,308.5086,312,299.5086,308,303.5086,304,299.5086,308,308.5086" style="stroke:#181818;stroke-width:1.0;"/></g><!--link gw to cache--><g id="link_gw_cache"><path d="M233.35,339.8186 C143.92,349.3686 6,380.4186 6,481.0986 C6,481.0986 6,481.0986 6,713.5986 C6,799.2786 109.7,829.3586 195.57,839.5786 " fill="none" id="gw-to-cache" style="stroke:#181818;stroke-width:1.0;"/><polygon fill="#181818" points="200.68,840.1586,192.1956,835.1571,195.7127,839.5877,191.2821,843.1048,200.68,840.1586" style="stroke:#181818;stroke-width:1.0;"/><text fill="#000000" font-family="Arial" font-size="13" lengthAdjust="spacing" textLength="117" x="7" y="605.0051">1) &#1087;&#1086;&#1080;&#1089;&#1082; &#1087;&#1086; &#1089;&#1084;&#1099;&#1089;&#1083;&#1091;</text></g><!--link cache to gw--><g id="link_cache_gw"><path d="M308,814.5586 C308,788.1086 308,748.2586 308,713.5986 C308,481.0986 308,481.0986 308,481.0986 C308,441.3886 308,395.5786 308,366.1386 " fill="none" id="cache-to-gw" style="stroke:#181818;stroke-width:1.0;"/><polygon fill="#181818" points="308,360.8286,304,369.8286,308,365.8286,312,369.8286,308,360.8286" style="stroke:#181818;stroke-width:1.0;"/><text fill="#000000" font-family="Arial" font-size="13" lengthAdjust="spacing" textLength="141" x="309" y="605.0051">hit -&gt; &#1084;&#1075;&#1085;&#1086;&#1074;&#1077;&#1085;&#1085;&#1099;&#1081; &#1086;&#1090;&#1074;&#1077;&#1090;</text></g><!--link gw to rec--><g id="link_gw_rec"><path d="M233.35,348.1686 C187.47,357.5886 134.89,372.0386 121,390.5986 C108.85,406.8386 114.42,428.6786 123.35,446.8386 " fill="none" id="gw-to-rec" style="stroke:#181818;stroke-width:1.0;"/><polygon fill="#181818" points="125.69,451.3686,125.1296,441.5357,123.4026,446.9225,118.0158,445.1955,125.69,451.3686" style="stroke:#181818;stroke-width:1.0;"/><text fill="#000000" font-family="Arial" font-size="13" lengthAdjust="spacing" textLength="124" x="139.5" y="404.0051">2) miss, &#1083;&#1105;&#1075;&#1082;&#1080;&#1081; &#1087;&#1091;&#1090;&#1100;:</text><text fill="#000000" font-family="Arial" font-size="13" lengthAdjust="spacing" textLength="159" x="122" y="418.9539">&#1075;&#1086;&#1090;&#1086;&#1074;&#1072;&#1103; &#1074;&#1099;&#1076;&#1072;&#1095;&#1072; (&lt; 200 &#1084;&#1089;)</text></g><!--link gw to q--><g id="link_gw_q"><path d="M334.47,360.6086 C363.28,387.8286 408.98,430.9986 437.13,457.6086 " fill="none" id="gw-to-q" style="stroke:#181818;stroke-width:1.0;"/><polygon fill="#181818" points="440.82,461.0886,437.0265,451.9997,437.1861,457.6543,431.5315,457.8139,440.82,461.0886" style="stroke:#181818;stroke-width:1.0;"/><text fill="#000000" font-family="Arial" font-size="13" lengthAdjust="spacing" textLength="136" x="400" y="404.0051">3) miss, &#1090;&#1103;&#1078;&#1105;&#1083;&#1099;&#1081; &#1087;&#1091;&#1090;&#1100;:</text><text fill="#000000" font-family="Arial" font-size="13" lengthAdjust="spacing" textLength="132" x="402" y="418.9539">&#1087;&#1086;&#1089;&#1090;&#1072;&#1085;&#1086;&#1074;&#1082;&#1072; &#1074; &#1086;&#1095;&#1077;&#1088;&#1077;&#1076;&#1100;</text></g><!--link q to worker--><g id="link_q_worker"><path d="M482.03,503.2186 C500.33,521.5886 527.59,548.9686 548.21,569.6886 " fill="none" id="q-to-worker" style="stroke:#181818;stroke-width:1.0;"/><polygon fill="#181818" points="551.98,573.4786,548.463,564.2791,548.4516,569.936,542.7948,569.9245,551.98,573.4786" style="stroke:#181818;stroke-width:1.0;"/></g><!--link worker to inf--><g id="link_worker_inf"><path d="M567.02,625.7886 C560.43,642.3886 551.78,664.2186 544.85,681.6986 " fill="none" id="worker-to-inf" style="stroke:#181818;stroke-width:1.0;"/><polygon fill="#181818" points="542.94,686.5086,549.9782,679.6192,544.7846,681.8613,542.5425,676.6678,542.94,686.5086" style="stroke:#181818;stroke-width:1.0;"/></g><!--link inf to cache--><g id="link_inf_cache"><path d="M489.88,738.6086 C454.08,759.3686 402.89,789.0586 363.94,811.6586 " fill="none" id="inf-to-cache" style="stroke:#181818;stroke-width:1.0;"/><polygon fill="#181818" points="359.25,814.3786,369.0415,813.317,363.5735,811.8673,365.0233,806.3993,359.25,814.3786" style="stroke:#181818;stroke-width:1.0;"/><text fill="#000000" font-family="Arial" font-size="13" lengthAdjust="spacing" textLength="110" x="435" y="782.0051">&#1079;&#1072;&#1087;&#1080;&#1089;&#1100; &#1088;&#1077;&#1079;&#1091;&#1083;&#1100;&#1090;&#1072;&#1090;&#1072;</text></g><!--link worker to gw--><g id="link_worker_gw"><path d="M582.67,573.5186 C591.34,527.8386 601.42,431.9786 545,390.5986 C499.56,357.2686 437.11,343.7386 387.72,338.4286 " fill="none" id="worker-to-gw" style="stroke:#181818;stroke-width:1.0;"/><polygon fill="#181818" points="382.68,337.9086,391.2206,342.8135,387.6535,338.4231,392.0438,334.856,382.68,337.9086" style="stroke:#181818;stroke-width:1.0;"/><text fill="#000000" font-family="Arial" font-size="13" lengthAdjust="spacing" textLength="130" x="590" y="487.5051">async-&#1086;&#1090;&#1074;&#1077;&#1090; / callback</text></g><!--SRC=[VPFHJXD158RlzobEk6fZDmZU4MD209483Q4c9gOtm-wqdR0xQtUtQRWnb0OreOQOUAslK2cLbKBx2ZElu9FupsofYoQscUvqTivtpldFEQb80qwlkDUIqHwBK_fryeLUY6RBtOsOJsgeJ_IPolIf6giRVQhx-aGDgRJo61ywsAzLw2cjOgjkTQ_iECcHa6zPp49AMioFka8sgS62X1VU-Bp1Ea7wF99fbOMSrcF10iTXNXh5jAI-gQcQw86wnlCI_etdYShgyjt2wHAnX3e9ZnF7YRcNCjb44alRF78tgpLQfetDAdwt_2QlIzq3mc0oTQE65L8Z0AUkkhMvVSJgsvVN-FyUcLvOkkVB8dfzVuUsMSgxxBWkOsme4A58aLw5M2TjLPVVMBDcr_5PoWvP0gCQ3vbCXKSRp6iXaWFkYuGUaVu4vzyHnHM-cRf3H1aP_se6TQUwPpBFep261U81zw8mv18d8f9KWs8BRWcOAJB9LRiWTQdFmH_g3sfOjZJauxGxl0EG-ehZCRmX23qW5FP2_T2V8VovFlidbheiiUHOUXMovgu9ni-PxGSgcKlqEegFU0pX5r0Rp-xkdckrlxEEYs9thKMHj2CRFERIuwwQ8O8hVKub0Cfr-N9hSzr87YKU2qnxcGk4H2TMoZ4Xw4LgAhDy8HkEO_k5NFUPhIsMtQDWpMv-QhIcDLefMoI2wwcRd8xTBOJfGPw-az_BRN6z9LB27XKTmRqHtsHu1-r_agq73lJflHEa29lLCeKYIT2B4yWpGbzcvlRCTA8UhDNbVqf9fUB0pR5jG9_SGul5_0ixCnKrup0F5GC1-0F9zC1fM-QyAFd3dXWPiHwebRUA4SkqaI5SwxwPt_dG3Oi0AvZj9FUFD1XKL38uPDxHRm00]--></g></svg>