<?xml version="1.0" encoding="us-ascii" standalone="no"?><svg xmlns="http://www.w3.org/2000/svg" xmlns:xlink="http://www.w3.org/1999/xlink" contentStyleType="text/css" height="593px" preserveAspectRatio="none" style="width:732px;height:593px;background:#FFFFFF;" version="1.1" viewBox="0 0 732 593" width="732px" zoomAndPan="magnify"><defs/><g><text fill="#000000" font-family="sans-serif" font-size="14" font-weight="bold" lengthAdjust="spacing" textLength="400" x="167" y="29.5332">TechnoMart &#8212; Sequence Diagram / get_recommendation</text><rect fill="none" height="218.6484" style="stroke:#000000;stroke-width:1.5;" width="581.5" x="143.5" y="245.625"/><line style="stroke:#181818;stroke-width:0.5;stroke-dasharray:5.0,5.0;" x1="38" x2="38" y1="121.2188" y2="511.625"/><line style="stroke:#181818;stroke-width:0.5;stroke-dasharray:5.0,5.0;" x1="221.5" x2="221.5" y1="121.2188" y2="511.625"/><line style="stroke:#181818;stroke-width:0.5;stroke-dasharray:5.0,5.0;" x1="476" x2="476" y1="121.2188" y2="511.625"/><line style="stroke:#181818;stroke-width:0.5;stroke-dasharray:5.0,5.0;" x1="638" x2="638" y1="121.2188" y2="511.625"/><text fill="#000000" font-family="sans-serif" font-size="14" lengthAdjust="spacing" textLength="61" x="5" y="118.1426">Customer</text><ellipse cx="38.5" cy="52.1094" fill="#E2E2F0" rx="8" ry="8" style="stroke:#181818;stroke-width:0.5;"/><path d="M38.5,60.1094 L38.5,87.1094 M25.5,68.1094 L51.5,68.1094 M38.5,87.1094 L25.5,102.1094 M38.5,87.1094 L51.5,102.1094 " fill="none" style="stroke:#181818;stroke-width:0.5;"/><text fill="#000000" font-family="sans-serif" font-size="14" lengthAdjust="spacing" textLength="61" x="5" y="525.1582">Customer</text><ellipse cx="38.5" cy="536.7344" fill="#E2E2F0" rx="8" ry="8" style="stroke:#181818;stroke-width:0.5;"/><path d="M38.5,544.7344 L38.5,571.7344 M25.5,552.7344 L51.5,552.7344 M38.5,571.7344 L25.5,586.7344 M38.5,571.7344 L51.5,586.7344 " fill="none" style="stroke:#181818;stroke-width:0.5;"/><rect fill="#E2E2F0" height="31.6094" rx="2.5" ry="2.5" style="stroke:#181818;stroke-width:0.5;" width="136" x="153.5" y="88.6094"/><text fill="#000000" font-family="sans-serif" font-size="14" lengthAdjust="spacing" textLength="122" x="160.5" y="110.1426">&#1048;&#1085;&#1090;&#1077;&#1088;&#1085;&#1077;&#1090;-&#1084;&#1072;&#1075;&#1072;&#1079;&#1080;&#1085;</text><rect fill="#E2E2F0" height="31.6094" rx="2.5" ry="2.5" style="stroke:#181818;stroke-width:0.5;" width="136" x="153.5" y="510.625"/><text fill="#000000" font-family="sans-serif" font-size="14" lengthAdjust="spacing" textLength="122" x="160.5" y="532.1582">&#1048;&#1085;&#1090;&#1077;&#1088;&#1085;&#1077;&#1090;-&#1084;&#1072;&#1075;&#1072;&#1079;&#1080;&#1085;</text><rect fill="#E2E2F0" height="31.6094" rx="2.5" ry="2.5" style="stroke:#181818;stroke-width:0.5;" width="149" x="402" y="88.6094"/><text fill="#000000" font-family="sans-serif" font-size="14" lengthAdjust="spacing" textLength="135" x="409" y="110.1426">Recommendation API</text><rect fill="#E2E2F0" height="31.6094" rx="2.5" ry="2.5" style="stroke:#181818;stroke-width:0.5;" width="149" x="402" y="510.625"/><text fill="#000000" font-family="sans-serif" font-size="14" lengthAdjust="spacing" textLength="135" x="409" y="532.1582">Recommendation API</text><text fill="#000000" font-family="sans-serif" font-size="14" lengthAdjust="spacing" textLength="148" x="561" y="118.1426">Recommendation Store</text><path d="M620,67.6094 C620,57.6094 638,57.6094 638,57.6094 C638,57.6094 656,57.6094 656,67.6094 L656,93.6094 C656,103.6094 638,103.6094 638,103.6094 C638,103.6094 620,103.6094 620,93.6094 L620,67.6094 " fill="#E2E2F0" style="stroke:#181818;stroke-width:1.5;"/><path d="M620,67.6094 C620,77.6094 638,77.6094 638,77.6094 C638,77.6094 656,77.6094 656,67.6094 " fill="none" style="stroke:#181818;stroke-width:1.5;"/><text fill="#000000" font-family="sans-serif" font-size="14" lengthAdjust="spacing" textLength="148" x="561" y="525.1582">Recommendation Store</text><path d="M620,538.2344 C620,528.2344 638,528.2344 638,528.2344 C638,528.2344 656,528.2344 656,538.2344 L656,564.2344 C656,574.2344 638,574.2344 638,574.2344 C638,574.2344 620,574.2344 620,564.2344 L620,538.2344 " fill="#E2E2F0" style="stroke:#181818;stroke-width:1.5;"/><path d="M620,538.2344 C620,548.2344 638,548.2344 638,548.2344 C638,548.2344 656,548.2344 656,538.2344 " fill="none" style="stroke:#181818;stroke-width:1.5;"/><polygon fill="#181818" points="209.5,149.5703,219.5,153.5703,209.5,157.5703,213.5,153.5703" style="stroke:#181818;stroke-width:1.0;"/><line style="stroke:#181818;stroke-width:1.0;" x1="38.5" x2="215.5" y1="153.5703" y2="153.5703"/><text fill="#000000" font-family="sans-serif" font-size="13" lengthAdjust="spacing" textLength="121" x="45.5" y="148.7139">&#1054;&#1090;&#1082;&#1088;&#1099;&#1074;&#1072;&#1077;&#1090; &#1089;&#1090;&#1088;&#1072;&#1085;&#1080;&#1094;&#1091;</text><polygon fill="#181818" points="464.5,196.2734,474.5,200.2734,464.5,204.2734,468.5,200.2734" style="stroke:#181818;stroke-width:1.0;"/><line style="stroke:#181818;stroke-width:1.0;" x1="221.5" x2="470.5" y1="200.2734" y2="200.2734"/><text fill="#000000" font-family="sans-serif" font-size="13" lengthAdjust="spacing" textLength="164" x="228.5" y="179.0654">POST /get_recommendation</text><text fill="#000000" font-family="sans-serif" font-size="13" lengthAdjust="spacing" textLength="160" x="228.5" y="195.417">(profile_id, surface, context)</text><polygon fill="#181818" points="626,226.625,636,230.625,626,234.625,630,230.625" style="stroke:#181818;stroke-width:1.0;"/><line style="stroke:#181818;stroke-width:1.0;" x1="476.5" x2="632" y1="230.625" y2="230.625"/><text fill="#000000" font-family="sans-serif" font-size="13" lengthAdjust="spacing" textLength="127" x="483.5" y="225.7686">get(profile_id, surface)</text><path d="M143.5,245.625 L204.5,245.625 L204.5,253.9766 L194.5,263.9766 L143.5,263.9766 L143.5,245.625 " fill="#EEEEEE" style="stroke:#000000;stroke-width:1.5;"/><rect fill="none" height="218.6484" style="stroke:#000000;stroke-width:1.5;" width="581.5" x="143.5" y="245.625"/><text fill="#000000" font-family="sans-serif" font-size="13" font-weight="bold" lengthAdjust="spacing" textLength="16" x="158.5" y="260.1201">alt</text><text fill="#000000" font-family="sans-serif" font-size="11" font-weight="bold" lengthAdjust="spacing" textLength="144" x="219.5" y="259.0439">[&#1056;&#1077;&#1082;&#1086;&#1084;&#1077;&#1085;&#1076;&#1072;&#1094;&#1080;&#1080; &#1085;&#1072;&#1081;&#1076;&#1077;&#1085;&#1099;]</text><polygon fill="#181818" points="487.5,282.3281,477.5,286.3281,487.5,290.3281,483.5,286.3281" style="stroke:#181818;stroke-width:1.0;"/><line style="stroke:#181818;stroke-width:1.0;stroke-dasharray:2.0,2.0;" x1="481.5" x2="637" y1="286.3281" y2="286.3281"/><text fill="#000000" font-family="sans-serif" font-size="13" lengthAdjust="spacing" textLength="91" x="493.5" y="281.4717">ranked SKU list</text><polygon fill="#181818" points="232.5,329.0313,222.5,333.0313,232.5,337.0313,228.5,333.0313" style="stroke:#181818;stroke-width:1.0;"/><line style="stroke:#181818;stroke-width:1.0;stroke-dasharray:2.0,2.0;" x1="226.5" x2="475.5" y1="333.0313" y2="333.0313"/><text fill="#000000" font-family="sans-serif" font-size="13" lengthAdjust="spacing" textLength="44" x="238.5" y="311.8232">200 OK</text><text fill="#000000" font-family="sans-serif" font-size="13" lengthAdjust="spacing" textLength="231" x="238.5" y="328.1748">recommendations, source=personalized</text><line style="stroke:#000000;stroke-width:1.0;stroke-dasharray:2.0,2.0;" x1="143.5" x2="725" y1="342.0313" y2="342.0313"/><text fill="#000000" font-family="sans-serif" font-size="11" font-weight="bold" lengthAdjust="spacing" textLength="193" x="148.5" y="353.4502">[Cache miss / &#1087;&#1088;&#1086;&#1092;&#1080;&#1083;&#1100; &#1085;&#1077; &#1085;&#1072;&#1081;&#1076;&#1077;&#1085;]</text><polygon fill="#181818" points="626,375.2188,636,379.2188,626,383.2188,630,379.2188" style="stroke:#181818;stroke-width:1.0;"/><line style="stroke:#181818;stroke-width:1.0;" x1="476.5" x2="632" y1="379.2188" y2="379.2188"/><text fill="#000000" font-family="sans-serif" font-size="13" lengthAdjust="spacing" textLength="120" x="483.5" y="374.3623">get(fallback, surface)</text><polygon fill="#181818" points="487.5,405.5703,477.5,409.5703,487.5,413.5703,483.5,409.5703" style="stroke:#181818;stroke-width:1.0;"/><line style="stroke:#181818;stroke-width:1.0;stroke-dasharray:2.0,2.0;" x1="481.5" x2="637" y1="409.5703" y2="409.5703"/><text fill="#000000" font-family="sans-serif" font-size="13" lengthAdjust="spacing" textLength="96" x="493.5" y="404.7139">fallback SKU list</text><polygon fill="#181818" points="232.5,452.2734,222.5,456.2734,232.5,460.2734,228.5,456.2734" style="stroke:#181818;stroke-width:1.0;"/><line style="stroke:#181818;stroke-width:1.0;stroke-dasharray:2.0,2.0;" x1="226.5" x2="475.5" y1="456.2734" y2="456.2734"/><text fill="#000000" font-family="sans-serif" font-size="13" lengthAdjust="spacing" textLength="44" x="238.5" y="435.0654">200 OK</text><text fill="#000000" font-family="sans-serif" font-size="13" lengthAdjust="spacing" textLength="202" x="238.5" y="451.417">recommendations, source=fallback</text><polygon fill="#181818" points="49.5,489.625,39.5,493.625,49.5,497.625,45.5,493.625" style="stroke:#181818;stroke-width:1.0;"/><line style="stroke:#181818;stroke-width:1.0;stroke-dasharray:2.0,2.0;" x1="43.5" x2="220.5" y1="493.625" y2="493.625"/><text fill="#000000" font-family="sans-serif" font-size="13" lengthAdjust="spacing" textLength="159" x="55.5" y="488.7686">&#1054;&#1090;&#1086;&#1073;&#1088;&#1072;&#1078;&#1072;&#1077;&#1090; &#1083;&#1077;&#1085;&#1090;&#1091; &#1090;&#1086;&#1074;&#1072;&#1088;&#1086;&#1074;</text><!--SRC=[fPBDIWCn4CVlUOh1au95yIWeY5v4HB5w4oIcKmtk9ckIWdYgLRpeqOCdyH7gHxL-jBx2v1Ly4cVNLbtqvi8ksMJ-Cx__J88E2S8wgbrZbwKByDwyW2hkDz0eX0KjTvnCOG9sC6mvL3PDqTHaqDO88LMm3kORFjWK7KWFQh0M6QVIIcVI11YXI-h55dLYathyRLNebTfqn-yZTQataYkz3bXMhPMgmTpgOX4eCoruIsvBZx-2gWo4d_dobH138AZC5YLW6kYAMPvZCvxHBICm3yIZs6AuDkDrusay5aKeIxWOArPNgkimyRi3csOqSxQk4zpIjN7m3LUN2iT1MHFm88nnXrYVLyvXE16d-4kH1oO1w9ewz4nzxaw7IUwf7K-vFrtWdpOzyGPlnpC1_7nch7mXEcdsi0RLfGr8j0z5J57ys_VKv2IiB6sQiWVF5BRX5CvawBmrCj67M1EOS7VdfTf5IBNtV07eZJlKZoTCz1BFSwPE2UoxPDblNIR9jbHxFzp-PM0OzYyBmoI2ZyHWYAp-kWI3uVVfffZsms3yz59qjXMFeJZbQv5xfTiF]--></g></svg>