<svg xmlns="http://www.w3.org/2000/svg" xmlns:xlink="http://www.w3.org/1999/xlink" contentStyleType="text/css" data-diagram-type="SEQUENCE" height="574px" preserveAspectRatio="none" style="width:831px;height:574px;background:#FFFFFF;" version="1.1" viewBox="0 0 831 574" width="831px" zoomAndPan="magnify"><?plantuml 1.2026.3beta6?><defs/><g><g class="title" data-source-line="1"><text fill="#000000" font-family="sans-serif" font-size="14" font-weight="700" lengthAdjust="spacing" textLength="447.7129" x="188.3811" y="27.9951">TechnoMart &#8212; Sequence Diagram / get_recommendation</text></g><rect fill="none" height="207.8672" style="stroke:#000000;stroke-width:1.5;" width="646.3848" x="169.0903" y="238.125"/><g class="participant-lifeline" data-entity-uid="part1" data-qualified-name="customer" data-source-line="3" id="part1-lifeline"><g><title>Customer</title><rect fill="#000000" fill-opacity="0.00000" height="373.5313" width="8" x="38.002" y="118.5938"/><line style="stroke:#181818;stroke-width:0.5;stroke-dasharray:5,5;" x1="42" x2="42" y1="118.5938" y2="492.125"/></g></g><g class="participant-lifeline" data-entity-uid="part2" data-qualified-name="site" data-source-line="4" id="part2-lifeline"><g><title>........-.......</title><rect fill="#000000" fill-opacity="0.00000" height="373.5313" width="8" x="250.6035" y="118.5938"/><line style="stroke:#181818;stroke-width:0.5;stroke-dasharray:5,5;" x1="254.0903" x2="254.0903" y1="118.5938" y2="492.125"/></g></g><g class="participant-lifeline" data-entity-uid="part3" data-qualified-name="api" data-source-line="5" id="part3-lifeline"><g><title>Recommendation API</title><rect fill="#000000" fill-opacity="0.00000" height="373.5313" width="8" x="537.9424" y="118.5938"/><line style="stroke:#181818;stroke-width:0.5;stroke-dasharray:5,5;" x1="541.8188" x2="541.8188" y1="118.5938" y2="492.125"/></g></g><g class="participant-lifeline" data-entity-uid="part4" data-qualified-name="store" data-source-line="6" id="part4-lifeline"><g><title>Recommendation Store</title><rect fill="#000000" fill-opacity="0.00000" height="373.5313" width="8" x="715.7705" y="118.5938"/><line style="stroke:#181818;stroke-width:0.5;stroke-dasharray:5,5;" x1="719.0659" x2="719.0659" y1="118.5938" y2="492.125"/></g></g><g class="participant participant-head" data-entity-uid="part1" data-qualified-name="customer" data-source-line="3" id="part1-head"><text fill="#000000" font-family="sans-serif" font-size="14" lengthAdjust="spacing" textLength="68.0039" x="5" y="115.292">Customer</text><ellipse cx="42.002" cy="50.7969" fill="#E2E2F0" rx="8" ry="8" style="stroke:#181818;stroke-width:0.5;"/><path d="M42.002,58.7969 L42.002,85.7969 M29.002,66.7969 L55.002,66.7969 M42.002,85.7969 L29.002,100.7969 M42.002,85.7969 L55.002,100.7969" fill="none" style="stroke:#181818;stroke-width:0.5;"/></g><g class="participant participant-tail" data-entity-uid="part1" data-qualified-name="customer" data-source-line="3" id="part1-tail"><text fill="#000000" font-family="sans-serif" font-size="14" lengthAdjust="spacing" textLength="68.0039" x="5" y="504.1201">Customer</text><ellipse cx="42.002" cy="515.9219" fill="#E2E2F0" rx="8" ry="8" style="stroke:#181818;stroke-width:0.5;"/><path d="M42.002,523.9219 L42.002,550.9219 M29.002,531.9219 L55.002,531.9219 M42.002,550.9219 L29.002,565.9219 M42.002,550.9219 L55.002,565.9219" fill="none" style="stroke:#181818;stroke-width:0.5;"/></g><g class="participant participant-head" data-entity-uid="part2" data-qualified-name="site" data-source-line="4" id="part2-head"><rect fill="#E2E2F0" height="30.2969" rx="2.5" ry="2.5" style="stroke:#181818;stroke-width:0.5;" width="151.0264" x="179.0903" y="87.2969"/><text fill="#000000" font-family="sans-serif" font-size="14" lengthAdjust="spacing" textLength="137.0264" x="186.0903" y="107.292">&#1048;&#1085;&#1090;&#1077;&#1088;&#1085;&#1077;&#1090;-&#1084;&#1072;&#1075;&#1072;&#1079;&#1080;&#1085;</text></g><g class="participant participant-tail" data-entity-uid="part2" data-qualified-name="site" data-source-line="4" id="part2-tail"><rect fill="#E2E2F0" height="30.2969" rx="2.5" ry="2.5" style="stroke:#181818;stroke-width:0.5;" width="151.0264" x="179.0903" y="491.125"/><text fill="#000000" font-family="sans-serif" font-size="14" lengthAdjust="spacing" textLength="137.0264" x="186.0903" y="511.1201">&#1048;&#1085;&#1090;&#1077;&#1088;&#1085;&#1077;&#1090;-&#1084;&#1072;&#1075;&#1072;&#1079;&#1080;&#1085;</text></g><g class="participant participant-head" data-entity-uid="part3" data-qualified-name="api" data-source-line="5" id="part3-head"><rect fill="#E2E2F0" height="30.2969" rx="2.5" ry="2.5" style="stroke:#181818;stroke-width:0.5;" width="164.2471" x="459.8188" y="87.2969"/><text fill="#000000" font-family="sans-serif" font-size="14" lengthAdjust="spacing" textLength="150.2471" x="466.8188" y="107.292">Recommendation API</text></g><g class="participant participant-tail" data-entity-uid="part3" data-qualified-name="api" data-source-line="5" id="part3-tail"><rect fill="#E2E2F0" height="30.2969" rx="2.5" ry="2.5" style="stroke:#181818;stroke-width:0.5;" width="164.2471" x="459.8188" y="491.125"/><text fill="#000000" font-family="sans-serif" font-size="14" lengthAdjust="spacing" textLength="150.2471" x="466.8188" y="511.1201">Recommendation API</text></g><g class="participant participant-head" data-entity-uid="part4" data-qualified-name="store" data-source-line="6" id="part4-head"><text fill="#000000" font-family="sans-serif" font-size="14" lengthAdjust="spacing" textLength="165.4092" x="634.0659" y="115.292">Recommendation Store</text><path d="M701.7705,66.2969 C701.7705,56.2969 719.7705,56.2969 719.7705,56.2969 C719.7705,56.2969 737.7705,56.2969 737.7705,66.2969 L737.7705,92.2969 C737.7705,102.2969 719.7705,102.2969 719.7705,102.2969 C719.7705,102.2969 701.7705,102.2969 701.7705,92.2969 L701.7705,66.2969" fill="#E2E2F0" style="stroke:#181818;stroke-width:0.5;"/><path d="M701.7705,66.2969 C701.7705,76.2969 719.7705,76.2969 719.7705,76.2969 C719.7705,76.2969 737.7705,76.2969 737.7705,66.2969" fill="none" style="stroke:#181818;stroke-width:0.5;"/></g><g class="participant participant-tail" data-entity-uid="part4" data-qualified-name="store" data-source-line="6" id="part4-tail"><text fill="#000000" font-family="sans-serif" font-size="14" lengthAdjust="spacing" textLength="165.4092" x="634.0659" y="504.1201">Recommendation Store</text><path d="M701.7705,517.4219 C701.7705,507.4219 719.7705,507.4219 719.7705,507.4219 C719.7705,507.4219 737.7705,507.4219 737.7705,517.4219 L737.7705,543.4219 C737.7705,553.4219 719.7705,553.4219 719.7705,553.4219 C719.7705,553.4219 701.7705,553.4219 701.7705,543.4219 L701.7705,517.4219" fill="#E2E2F0" style="stroke:#181818;stroke-width:0.5;"/><path d="M701.7705,517.4219 C701.7705,527.4219 719.7705,527.4219 719.7705,527.4219 C719.7705,527.4219 737.7705,527.4219 737.7705,517.4219" fill="none" style="stroke:#181818;stroke-width:0.5;"/></g><g class="message" data-entity-1="part1" data-entity-2="part2" data-source-line="8" id="msg1"><polygon fill="#181818" points="242.6035,145.7266,252.6035,149.7266,242.6035,153.7266,246.6035,149.7266" style="stroke:#181818;stroke-width:1;"/><line style="stroke:#181818;stroke-width:1;" x1="42.002" x2="248.6035" y1="149.7266" y2="149.7266"/><text fill="#000000" font-family="sans-serif" font-size="13" lengthAdjust="spacing" textLength="143.9331" x="49.002" y="144.6606">&#1054;&#1090;&#1082;&#1088;&#1099;&#1074;&#1072;&#1077;&#1090; &#1089;&#1090;&#1088;&#1072;&#1085;&#1080;&#1094;&#1091;</text></g><g class="message" data-entity-1="part2" data-entity-2="part3" data-source-line="9" id="msg2"><polygon fill="#181818" points="529.9424,189.9922,539.9424,193.9922,529.9424,197.9922,533.9424,193.9922" style="stroke:#181818;stroke-width:1;"/><line style="stroke:#181818;stroke-width:1;" x1="254.6035" x2="535.9424" y1="193.9922" y2="193.9922"/><text fill="#000000" font-family="sans-serif" font-size="13" lengthAdjust="spacing" textLength="181.7524" x="261.6035" y="173.7935">POST /get_recommendation</text><text fill="#000000" font-family="sans-serif" font-size="13" lengthAdjust="spacing" textLength="183.6567" x="261.6035" y="188.9263">(profile_id, surface, context)</text></g><g class="message" data-entity-1="part3" data-entity-2="part4" data-source-line="11" id="msg3"><polygon fill="#181818" points="707.7705,219.125,717.7705,223.125,707.7705,227.125,711.7705,223.125" style="stroke:#181818;stroke-width:1;"/><line style="stroke:#181818;stroke-width:1;" x1="541.9424" x2="713.7705" y1="223.125" y2="223.125"/><text fill="#000000" font-family="sans-serif" font-size="13" lengthAdjust="spacing" textLength="147.5132" x="548.9424" y="218.0591">get(profile_id, surface)</text></g><path d="M169.0903,238.125 L233.5332,238.125 L233.5332,245.2578 L223.5332,255.2578 L169.0903,255.2578 L169.0903,238.125" fill="#EEEEEE" style="stroke:#000000;stroke-width:1.5;"/><rect fill="none" height="207.8672" style="stroke:#000000;stroke-width:1.5;" width="646.3848" x="169.0903" y="238.125"/><text fill="#000000" font-family="sans-serif" font-size="13" font-weight="700" lengthAdjust="spacing" textLength="19.4429" x="184.0903" y="251.1919">alt</text><text fill="#000000" font-family="sans-serif" font-size="11" font-weight="700" lengthAdjust="spacing" textLength="164.9785" x="248.5332" y="250.3354">[&#1056;&#1077;&#1082;&#1086;&#1084;&#1077;&#1085;&#1076;&#1072;&#1094;&#1080;&#1080; &#1085;&#1072;&#1081;&#1076;&#1077;&#1085;&#1099;]</text><g class="message" data-entity-1="part4" data-entity-2="part3" data-source-line="14" id="msg4"><polygon fill="#181818" points="552.9424,272.3906,542.9424,276.3906,552.9424,280.3906,548.9424,276.3906" style="stroke:#181818;stroke-width:1;"/><line style="stroke:#181818;stroke-width:1;stroke-dasharray:2,2;" x1="546.9424" x2="718.7705" y1="276.3906" y2="276.3906"/><text fill="#000000" font-family="sans-serif" font-size="13" lengthAdjust="spacing" textLength="98.979" x="558.9424" y="271.3247">ranked SKU list</text></g><g class="message" data-entity-1="part3" data-entity-2="part2" data-source-line="15" id="msg5"><polygon fill="#181818" points="265.6035,316.6563,255.6035,320.6563,265.6035,324.6563,261.6035,320.6563" style="stroke:#181818;stroke-width:1;"/><line style="stroke:#181818;stroke-width:1;stroke-dasharray:2,2;" x1="259.6035" x2="540.9424" y1="320.6563" y2="320.6563"/><text fill="#000000" font-family="sans-serif" font-size="13" lengthAdjust="spacing" textLength="47.7026" x="271.6035" y="300.4575">200 OK</text><text fill="#000000" font-family="sans-serif" font-size="13" lengthAdjust="spacing" textLength="263.3389" x="271.6035" y="315.5903">recommendations, source=personalized</text></g><line style="stroke:#000000;stroke-width:1;stroke-dasharray:2,2;" x1="169.0903" x2="815.4751" y1="329.6563" y2="329.6563"/><text fill="#000000" font-family="sans-serif" font-size="11" font-weight="700" lengthAdjust="spacing" textLength="217.2554" x="174.0903" y="339.8667">[Cache miss / &#1087;&#1088;&#1086;&#1092;&#1080;&#1083;&#1100; &#1085;&#1077; &#1085;&#1072;&#1081;&#1076;&#1077;&#1085;]</text><g class="message" data-entity-1="part3" data-entity-2="part4" data-source-line="17" id="msg6"><polygon fill="#181818" points="707.7705,360.5938,717.7705,364.5938,707.7705,368.5938,711.7705,364.5938" style="stroke:#181818;stroke-width:1;"/><line style="stroke:#181818;stroke-width:1;" x1="541.9424" x2="713.7705" y1="364.5938" y2="364.5938"/><text fill="#000000" font-family="sans-serif" font-size="13" lengthAdjust="spacing" textLength="138.4614" x="548.9424" y="359.5278">get(fallback, surface)</text></g><g class="message" data-entity-1="part4" data-entity-2="part3" data-source-line="18" id="msg7"><polygon fill="#181818" points="552.9424,389.7266,542.9424,393.7266,552.9424,397.7266,548.9424,393.7266" style="stroke:#181818;stroke-width:1;"/><line style="stroke:#181818;stroke-width:1;stroke-dasharray:2,2;" x1="546.9424" x2="718.7705" y1="393.7266" y2="393.7266"/><text fill="#000000" font-family="sans-serif" font-size="13" lengthAdjust="spacing" textLength="104.311" x="558.9424" y="388.6606">fallback SKU list</text></g><g class="message" data-entity-1="part3" data-entity-2="part2" data-source-line="19" id="msg8"><polygon fill="#181818" points="265.6035,433.9922,255.6035,437.9922,265.6035,441.9922,261.6035,437.9922" style="stroke:#181818;stroke-width:1;"/><line style="stroke:#181818;stroke-width:1;stroke-dasharray:2,2;" x1="259.6035" x2="540.9424" y1="437.9922" y2="437.9922"/><text fill="#000000" font-family="sans-serif" font-size="13" lengthAdjust="spacing" textLength="47.7026" x="271.6035" y="417.7935">200 OK</text><text fill="#000000" font-family="sans-serif" font-size="13" lengthAdjust="spacing" textLength="231.1753" x="271.6035" y="432.9263">recommendations, source=fallback</text></g><g class="message" data-entity-1="part2" data-entity-2="part1" data-source-line="22" id="msg9"><polygon fill="#181818" points="53.002,470.125,43.002,474.125,53.002,478.125,49.002,474.125" style="stroke:#181818;stroke-width:1;"/><line style="stroke:#181818;stroke-width:1;stroke-dasharray:2,2;" x1="47.002" x2="253.6035" y1="474.125" y2="474.125"/><text fill="#000000" font-family="sans-serif" font-size="13" lengthAdjust="spacing" textLength="188.6016" x="59.002" y="469.0591">&#1054;&#1090;&#1086;&#1073;&#1088;&#1072;&#1078;&#1072;&#1077;&#1090; &#1083;&#1077;&#1085;&#1090;&#1091; &#1090;&#1086;&#1074;&#1072;&#1088;&#1086;&#1074;</text></g><?plantuml-src fPBDIWCn4CVlUOh1au95yIWeY5v4HB5w4oIcKmtk9ckIWdYgLRpeqOCdyH7gHxL-jBx2v1Ly4cVNLbtqvi8ksMJ-Cx__J88E2S8wgbrZbwKByDwyW2hkDz0eX0KjTvnCOG9sC6mvL3PDqTHaqDO88LMm3kORFjWK7KWFQh0M6QVIIcVI11YXI-h55dLYathyRLNebTfqn-yZTQataYkz3bXMhPMgmTpgOX4eCoruIsvBZx-2gWo4d_dobH138AZC5YLW6kYAMPvZCvxHBICm3yIZs6AuDkDrusay5aKeIxWOArPNgkimyRi3csOqSxQk4zpIjN7m3LUN2iT1MHFm88nnXrYVLyvXE16d-4kH1oO1w9ewz4nzxaw7IUwf7K-vFrtWdpOzyGPlnpC1_7nch7mXEcdsi0RLfGr8j0z5J57ys_VKv2IiB6sQiWVF5BRX5CvawBmrCj67M1EOS7VdfTf5IBNtV07eZJlKZoTCz1BFSwPE2UoxPDblNIR9jbHxFzp-PM0OzYyBmoI2ZyHWYAp-kWI3uVVfffZsms3yz59qjXMFeJZbQv5xfTiF?></g></svg>