<?xml version="1.0" encoding="us-ascii" standalone="no"?><svg xmlns="http://www.w3.org/2000/svg" xmlns:xlink="http://www.w3.org/1999/xlink" contentStyleType="text/css" height="802px" preserveAspectRatio="none" style="width:416px;height:802px;background:#FFFFFF;" version="1.1" viewBox="0 0 416 802" width="416px" zoomAndPan="magnify"><defs/><g><text fill="#000000" font-family="sans-serif" font-size="14" font-weight="bold" lengthAdjust="spacing" textLength="373" x="20" y="34.5332">RAG Flow &#8212; &#1073;&#1072;&#1079;&#1072; &#1087;&#1086;&#1083;&#1080;&#1090;&#1080;&#1082;&#1080; &#1082;&#1086;&#1084;&#1072;&#1085;&#1076;&#1080;&#1088;&#1086;&#1074;&#1086;&#1082; &#1082;&#1086;&#1084;&#1087;&#1072;&#1085;&#1080;&#1080;</text><ellipse cx="208" cy="58.6094" fill="#222222" rx="10" ry="10" style="stroke:#222222;stroke-width:1.0;"/><rect fill="none" height="310.3594" style="stroke:#000000;stroke-width:1.5;" width="214" x="101" y="78.6094"/><path d="M259,78.6094 L259,89.2188 L249,99.2188 L101,99.2188 " fill="none" style="stroke:#000000;stroke-width:1.5;"/><text fill="#000000" font-family="sans-serif" font-size="14" lengthAdjust="spacing" textLength="148" x="104" y="94.1426">&#1054;&#1092;&#1092;&#1083;&#1072;&#1081;&#1085;-&#1080;&#1085;&#1076;&#1077;&#1082;&#1089;&#1072;&#1094;&#1080;&#1103;</text><rect fill="#F1F1F1" height="50.1875" rx="12.5" ry="12.5" style="stroke:#181818;stroke-width:0.5;" width="142" x="137" y="116.2188"/><text fill="#000000" font-family="sans-serif" font-size="12" lengthAdjust="spacing" textLength="119" x="147" y="138.6758">&#1044;&#1086;&#1082;&#1091;&#1084;&#1077;&#1085;&#1090;&#1099; &#1087;&#1086;&#1083;&#1080;&#1090;&#1080;&#1082;&#1080;</text><text fill="#000000" font-family="sans-serif" font-size="12" lengthAdjust="spacing" textLength="122" x="147" y="153.7695">(PDF / Wiki / &#1087;&#1088;&#1080;&#1082;&#1072;&#1079;&#1099;)</text><rect fill="#F1F1F1" height="50.1875" rx="12.5" ry="12.5" style="stroke:#181818;stroke-width:0.5;" width="174" x="121" y="186.4063"/><text fill="#000000" font-family="sans-serif" font-size="12" lengthAdjust="spacing" textLength="46" x="131" y="208.8633">&#1063;&#1072;&#1085;&#1082;&#1080;&#1085;&#1075;</text><text fill="#000000" font-family="sans-serif" font-size="12" lengthAdjust="spacing" textLength="154" x="131" y="223.957">(&#1088;&#1072;&#1079;&#1073;&#1080;&#1077;&#1085;&#1080;&#1077; &#1085;&#1072; &#1092;&#1088;&#1072;&#1075;&#1084;&#1077;&#1085;&#1090;&#1099;)</text><rect fill="#F1F1F1" height="50.1875" rx="12.5" ry="12.5" style="stroke:#181818;stroke-width:0.5;" width="129" x="143.5" y="256.5938"/><text fill="#000000" font-family="sans-serif" font-size="12" lengthAdjust="spacing" textLength="106" x="153.5" y="279.0508">&#1069;&#1084;&#1073;&#1077;&#1076;&#1076;&#1080;&#1085;&#1075; &#1095;&#1072;&#1085;&#1082;&#1086;&#1074;</text><text fill="#000000" font-family="sans-serif" font-size="12" lengthAdjust="spacing" textLength="109" x="153.5" y="294.1445">(embedding model)</text><rect fill="#F1F1F1" height="50.1875" rx="12.5" ry="12.5" style="stroke:#181818;stroke-width:0.5;" width="194" x="111" y="326.7813"/><text fill="#000000" font-family="sans-serif" font-size="12" lengthAdjust="spacing" textLength="136" x="121" y="349.2383">&#1048;&#1085;&#1076;&#1077;&#1082;&#1089;&#1072;&#1094;&#1080;&#1103; &#1074; Vector DB</text><text fill="#000000" font-family="sans-serif" font-size="12" lengthAdjust="spacing" textLength="174" x="121" y="364.332">(+ &#1084;&#1077;&#1090;&#1072;&#1076;&#1072;&#1085;&#1085;&#1099;&#1077;: &#1086;&#1090;&#1076;&#1077;&#1083;, &#1088;&#1077;&#1075;&#1080;&#1086;&#1085;)</text><rect fill="none" height="350.3594" style="stroke:#000000;stroke-width:1.5;" width="235" x="90.5" y="398.9688"/><path d="M201.5,398.9688 L201.5,409.5781 L191.5,419.5781 L90.5,419.5781 " fill="none" style="stroke:#000000;stroke-width:1.5;"/><text fill="#000000" font-family="sans-serif" font-size="14" lengthAdjust="spacing" textLength="101" x="93.5" y="414.502">&#1054;&#1085;&#1083;&#1072;&#1081;&#1085;-&#1079;&#1072;&#1087;&#1088;&#1086;&#1089;</text><rect fill="#F1F1F1" height="35.0938" rx="12.5" ry="12.5" style="stroke:#181818;stroke-width:0.5;" width="184" x="116" y="436.5781"/><text fill="#000000" font-family="sans-serif" font-size="12" lengthAdjust="spacing" textLength="164" x="126" y="459.0352">&#1047;&#1072;&#1087;&#1088;&#1086;&#1089; &#1072;&#1075;&#1077;&#1085;&#1090;&#1072;/&#1087;&#1086;&#1083;&#1100;&#1079;&#1086;&#1074;&#1072;&#1090;&#1077;&#1083;&#1103;</text><rect fill="#F1F1F1" height="50.1875" rx="12.5" ry="12.5" style="stroke:#181818;stroke-width:0.5;" width="155" x="130.5" y="491.6719"/><text fill="#000000" font-family="sans-serif" font-size="12" lengthAdjust="spacing" textLength="101" x="140.5" y="514.1289">&#1043;&#1080;&#1073;&#1088;&#1080;&#1076;&#1085;&#1099;&#1081; &#1087;&#1086;&#1080;&#1089;&#1082;</text><text fill="#000000" font-family="sans-serif" font-size="12" lengthAdjust="spacing" textLength="135" x="140.5" y="529.2227">(dense + sparse / BM25)</text><rect fill="#F1F1F1" height="50.1875" rx="12.5" ry="12.5" style="stroke:#181818;stroke-width:0.5;" width="141" x="137.5" y="561.8594"/><text fill="#000000" font-family="sans-serif" font-size="12" lengthAdjust="spacing" textLength="57" x="147.5" y="584.3164">Reranking</text><text fill="#000000" font-family="sans-serif" font-size="12" lengthAdjust="spacing" textLength="121" x="147.5" y="599.4102">(cross-encoder, top-k)</text><rect fill="#F1F1F1" height="50.1875" rx="12.5" ry="12.5" style="stroke:#181818;stroke-width:0.5;" width="186" x="115" y="632.0469"/><text fill="#000000" font-family="sans-serif" font-size="12" lengthAdjust="spacing" textLength="97" x="125" y="654.5039">Prompt assembly</text><text fill="#000000" font-family="sans-serif" font-size="12" lengthAdjust="spacing" textLength="166" x="125" y="669.5977">(&#1082;&#1086;&#1085;&#1090;&#1077;&#1082;&#1089;&#1090; &#1087;&#1086;&#1083;&#1080;&#1090;&#1080;&#1082;&#1080; + &#1074;&#1086;&#1087;&#1088;&#1086;&#1089;)</text><rect fill="#F1F1F1" height="35.0938" rx="12.5" ry="12.5" style="stroke:#181818;stroke-width:0.5;" width="215" x="100.5" y="702.2344"/><text fill="#000000" font-family="sans-serif" font-size="12" lengthAdjust="spacing" textLength="195" x="110.5" y="724.6914">LLM -&gt; &#1086;&#1090;&#1074;&#1077;&#1090; &#1089; &#1086;&#1087;&#1086;&#1088;&#1086;&#1081; &#1085;&#1072; &#1087;&#1086;&#1083;&#1080;&#1090;&#1080;&#1082;&#1091;</text><ellipse cx="208" cy="780.3281" fill="none" rx="11" ry="11" style="stroke:#222222;stroke-width:1.0;"/><ellipse cx="208" cy="780.3281" fill="#222222" rx="6" ry="6" style="stroke:#111111;stroke-width:1.0;"/><line style="stroke:#181818;stroke-width:1.0;" x1="208" x2="208" y1="166.4063" y2="186.4063"/><polygon fill="#181818" points="204,176.4063,208,186.4063,212,176.4063,208,180.4063" style="stroke:#181818;stroke-width:1.0;"/><line style="stroke:#181818;stroke-width:1.0;" x1="208" x2="208" y1="236.5938" y2="256.5938"/><polygon fill="#181818" points="204,246.5938,208,256.5938,212,246.5938,208,250.5938" style="stroke:#181818;stroke-width:1.0;"/><line style="stroke:#181818;stroke-width:1.0;" x1="208" x2="208" y1="306.7813" y2="326.7813"/><polygon fill="#181818" points="204,316.7813,208,326.7813,212,316.7813,208,320.7813" style="stroke:#181818;stroke-width:1.0;"/><line style="stroke:#181818;stroke-width:1.0;" x1="208" x2="208" y1="68.6094" y2="116.2188"/><polygon fill="#181818" points="204,106.2188,208,116.2188,212,106.2188,208,110.2188" style="stroke:#181818;stroke-width:1.0;"/><line style="stroke:#181818;stroke-width:1.0;" x1="208" x2="208" y1="471.6719" y2="491.6719"/><polygon fill="#181818" points="204,481.6719,208,491.6719,212,481.6719,208,485.6719" style="stroke:#181818;stroke-width:1.0;"/><line style="stroke:#181818;stroke-width:1.0;" x1="208" x2="208" y1="541.8594" y2="561.8594"/><polygon fill="#181818" points="204,551.8594,208,561.8594,212,551.8594,208,555.8594" style="stroke:#181818;stroke-width:1.0;"/><line style="stroke:#181818;stroke-width:1.0;" x1="208" x2="208" y1="612.0469" y2="632.0469"/><polygon fill="#181818" points="204,622.0469,208,632.0469,212,622.0469,208,626.0469" style="stroke:#181818;stroke-width:1.0;"/><line style="stroke:#181818;stroke-width:1.0;" x1="208" x2="208" y1="682.2344" y2="702.2344"/><polygon fill="#181818" points="204,692.2344,208,702.2344,212,692.2344,208,696.2344" style="stroke:#181818;stroke-width:1.0;"/><line style="stroke:#181818;stroke-width:1.0;" x1="208" x2="208" y1="376.9688" y2="436.5781"/><polygon fill="#181818" points="204,426.5781,208,436.5781,212,426.5781,208,430.5781" style="stroke:#181818;stroke-width:1.0;"/><line style="stroke:#181818;stroke-width:1.0;" x1="208" x2="208" y1="737.3281" y2="769.3281"/><polygon fill="#181818" points="204,759.3281,208,769.3281,212,759.3281,208,763.3281" style="stroke:#181818;stroke-width:1.0;"/><!--SRC=[PL9DIm9H5DtxAowk2XKXQ6CG556R16bHQzD73EgCp0n4H50cjJ1maL2hjgs2qHmQfsRy2_VzXNv9vxxH8bpCUs_knxdddFTyosyhEjeveFssSqxVroFYCGVymG7nd5F-v4ZtEEAO8yAIyXUo2KyHliRV15-yJCnDAk8eb_FykkldkbWitt9iolEBxki-u0AUSL92bO247EiR3lGTu8PvkimHLNWacFeMW24dkgS7AqnGjbRRswSodLWj2nlFmKPIOAu7wri6vzNGYSseTsb1ZIWR8n8QeY5X2mZC9FF-Dt61y8R86B6fw1KKqlSBK4WNIDKvLSscPPzHnscgzgBlULKSyOIELSDtNDhRbSu2oJWe2b0gc8aUS5WXJX6JviyYWLO8MX6c9O2- -cyeUdxjn7qP3r9zixJnwIz4HftHna4vSrC_e4akC40Gq_Gmu_w8SMFZvjHGccNkHv0I2- -ciZr51VB01OSoxLOtDZFTHygjsosO8NKDr_6yah8RyCKjakzqIwsihEOwdQvFTS-3U-qBAJQ69eO8FDEzrRS7k-IjBGHbG8U7LIfjPuvDn4iIgQdqciSvowxtFvQ-5ICzyFa1]--></g></svg>