<?xml version="1.0" encoding="us-ascii" standalone="no"?><svg xmlns="http://www.w3.org/2000/svg" xmlns:xlink="http://www.w3.org/1999/xlink" contentStyleType="text/css" height="501px" preserveAspectRatio="none" style="width:970px;height:501px;background:#FFFFFF;" version="1.1" viewBox="0 0 970 501" width="970px" zoomAndPan="magnify"><defs/><g><text fill="#000000" font-family="sans-serif" font-size="14" font-weight="bold" lengthAdjust="spacing" textLength="434" x="269.5" y="29.5332">&#1044;&#1077;&#1083;&#1077;&#1075;&#1080;&#1088;&#1086;&#1074;&#1072;&#1085;&#1080;&#1077; &#1079;&#1072;&#1076;&#1072;&#1095;&#1080;: &#1052;&#1077;&#1085;&#1077;&#1076;&#1078;&#1077;&#1088; -&gt; &#1055;&#1086;&#1080;&#1089;&#1082;&#1086;&#1074;&#1080;&#1082; -&gt; &#1040;&#1085;&#1072;&#1083;&#1080;&#1090;&#1080;&#1082;</text><line style="stroke:#181818;stroke-width:0.5;stroke-dasharray:5.0,5.0;" x1="43" x2="43" y1="124.8281" y2="403.9922"/><line style="stroke:#181818;stroke-width:0.5;stroke-dasharray:5.0,5.0;" x1="321.5" x2="321.5" y1="124.8281" y2="403.9922"/><line style="stroke:#181818;stroke-width:0.5;stroke-dasharray:5.0,5.0;" x1="553.5" x2="553.5" y1="124.8281" y2="403.9922"/><line style="stroke:#181818;stroke-width:0.5;stroke-dasharray:5.0,5.0;" x1="735.5" x2="735.5" y1="124.8281" y2="403.9922"/><line style="stroke:#181818;stroke-width:0.5;stroke-dasharray:5.0,5.0;" x1="930" x2="930" y1="124.8281" y2="403.9922"/><text fill="#000000" font-family="sans-serif" font-size="14" lengthAdjust="spacing" textLength="70" x="5" y="121.752">&#1057;&#1086;&#1090;&#1088;&#1091;&#1076;&#1085;&#1080;&#1082;</text><ellipse cx="43" cy="55.7188" fill="#E2E2F0" rx="8" ry="8" style="stroke:#181818;stroke-width:0.5;"/><path d="M43,63.7188 L43,90.7188 M30,71.7188 L56,71.7188 M43,90.7188 L30,105.7188 M43,90.7188 L56,105.7188 " fill="none" style="stroke:#181818;stroke-width:0.5;"/><text fill="#000000" font-family="sans-serif" font-size="14" lengthAdjust="spacing" textLength="70" x="5" y="417.5254">&#1057;&#1086;&#1090;&#1088;&#1091;&#1076;&#1085;&#1080;&#1082;</text><ellipse cx="43" cy="429.1016" fill="#E2E2F0" rx="8" ry="8" style="stroke:#181818;stroke-width:0.5;"/><path d="M43,437.1016 L43,464.1016 M30,445.1016 L56,445.1016 M43,464.1016 L30,479.1016 M43,464.1016 L56,479.1016 " fill="none" style="stroke:#181818;stroke-width:0.5;"/><rect fill="#E2E2F0" height="49.2188" rx="2.5" ry="2.5" style="stroke:#181818;stroke-width:0.5;" width="101" x="271.5" y="74.6094"/><text fill="#000000" font-family="sans-serif" font-size="14" lengthAdjust="spacing" textLength="87" x="278.5" y="96.1426">&#1050;&#1086;&#1086;&#1088;&#1076;&#1080;&#1085;&#1072;&#1090;&#1086;&#1088;</text><text fill="#000000" font-family="sans-serif" font-size="14" lengthAdjust="spacing" textLength="78" x="283" y="113.752">(&#1052;&#1077;&#1085;&#1077;&#1076;&#1078;&#1077;&#1088;)</text><rect fill="#E2E2F0" height="49.2188" rx="2.5" ry="2.5" style="stroke:#181818;stroke-width:0.5;" width="101" x="271.5" y="402.9922"/><text fill="#000000" font-family="sans-serif" font-size="14" lengthAdjust="spacing" textLength="87" x="278.5" y="424.5254">&#1050;&#1086;&#1086;&#1088;&#1076;&#1080;&#1085;&#1072;&#1090;&#1086;&#1088;</text><text fill="#000000" font-family="sans-serif" font-size="14" lengthAdjust="spacing" textLength="78" x="283" y="442.1348">(&#1052;&#1077;&#1085;&#1077;&#1076;&#1078;&#1077;&#1088;)</text><rect fill="#E2E2F0" height="31.6094" rx="2.5" ry="2.5" style="stroke:#181818;stroke-width:0.5;" width="139" x="484.5" y="92.2188"/><text fill="#000000" font-family="sans-serif" font-size="14" lengthAdjust="spacing" textLength="125" x="491.5" y="113.752">&#1055;&#1086;&#1080;&#1089;&#1082;&#1086;&#1074;&#1080;&#1082; &#1073;&#1080;&#1083;&#1077;&#1090;&#1086;&#1074;</text><rect fill="#E2E2F0" height="31.6094" rx="2.5" ry="2.5" style="stroke:#181818;stroke-width:0.5;" width="139" x="484.5" y="402.9922"/><text fill="#000000" font-family="sans-serif" font-size="14" lengthAdjust="spacing" textLength="125" x="491.5" y="424.5254">&#1055;&#1086;&#1080;&#1089;&#1082;&#1086;&#1074;&#1080;&#1082; &#1073;&#1080;&#1083;&#1077;&#1090;&#1086;&#1074;</text><rect fill="#E2E2F0" height="31.6094" rx="2.5" ry="2.5" style="stroke:#181818;stroke-width:0.5;" width="204" x="633.5" y="92.2188"/><text fill="#000000" font-family="sans-serif" font-size="14" lengthAdjust="spacing" textLength="190" x="640.5" y="113.752">&#1040;&#1085;&#1072;&#1083;&#1080;&#1090;&#1080;&#1082; &#1073;&#1102;&#1076;&#1078;&#1077;&#1090;&#1072;/&#1087;&#1086;&#1083;&#1080;&#1090;&#1080;&#1082;&#1080;</text><rect fill="#E2E2F0" height="31.6094" rx="2.5" ry="2.5" style="stroke:#181818;stroke-width:0.5;" width="204" x="633.5" y="402.9922"/><text fill="#000000" font-family="sans-serif" font-size="14" lengthAdjust="spacing" textLength="190" x="640.5" y="424.5254">&#1040;&#1085;&#1072;&#1083;&#1080;&#1090;&#1080;&#1082; &#1073;&#1102;&#1076;&#1078;&#1077;&#1090;&#1072;/&#1087;&#1086;&#1083;&#1080;&#1090;&#1080;&#1082;&#1080;</text><text fill="#000000" font-family="sans-serif" font-size="14" lengthAdjust="spacing" textLength="64" x="895.5" y="104.1426">Vector DB</text><text fill="#000000" font-family="sans-serif" font-size="14" lengthAdjust="spacing" textLength="71" x="892" y="121.752">(&#1087;&#1086;&#1083;&#1080;&#1090;&#1080;&#1082;&#1072;)</text><path d="M912.5,53.6094 C912.5,43.6094 930.5,43.6094 930.5,43.6094 C930.5,43.6094 948.5,43.6094 948.5,53.6094 L948.5,79.6094 C948.5,89.6094 930.5,89.6094 930.5,89.6094 C930.5,89.6094 912.5,89.6094 912.5,79.6094 L912.5,53.6094 " fill="#E2E2F0" style="stroke:#181818;stroke-width:1.5;"/><path d="M912.5,53.6094 C912.5,63.6094 930.5,63.6094 930.5,63.6094 C930.5,63.6094 948.5,63.6094 948.5,53.6094 " fill="none" style="stroke:#181818;stroke-width:1.5;"/><text fill="#000000" font-family="sans-serif" font-size="14" lengthAdjust="spacing" textLength="64" x="895.5" y="417.5254">Vector DB</text><text fill="#000000" font-family="sans-serif" font-size="14" lengthAdjust="spacing" textLength="71" x="892" y="435.1348">(&#1087;&#1086;&#1083;&#1080;&#1090;&#1080;&#1082;&#1072;)</text><path d="M912.5,448.2109 C912.5,438.2109 930.5,438.2109 930.5,438.2109 C930.5,438.2109 948.5,438.2109 948.5,448.2109 L948.5,474.2109 C948.5,484.2109 930.5,484.2109 930.5,484.2109 C930.5,484.2109 912.5,484.2109 912.5,474.2109 L912.5,448.2109 " fill="#E2E2F0" style="stroke:#181818;stroke-width:1.5;"/><path d="M912.5,448.2109 C912.5,458.2109 930.5,458.2109 930.5,458.2109 C930.5,458.2109 948.5,458.2109 948.5,448.2109 " fill="none" style="stroke:#181818;stroke-width:1.5;"/><polygon fill="#181818" points="310,169.5313,320,173.5313,310,177.5313,314,173.5313" style="stroke:#181818;stroke-width:1.0;"/><line style="stroke:#181818;stroke-width:1.0;" x1="43" x2="316" y1="173.5313" y2="173.5313"/><text fill="#000000" font-family="sans-serif" font-size="13" lengthAdjust="spacing" textLength="152" x="50" y="152.3232">&#1054;&#1088;&#1075;&#1072;&#1085;&#1080;&#1079;&#1091;&#1081; &#1082;&#1086;&#1084;&#1072;&#1085;&#1076;&#1080;&#1088;&#1086;&#1074;&#1082;&#1091;</text><text fill="#000000" font-family="sans-serif" font-size="13" lengthAdjust="spacing" textLength="182" x="50" y="168.6748">&#1052;&#1086;&#1089;&#1082;&#1074;&#1072; -&gt; &#1050;&#1072;&#1079;&#1072;&#1085;&#1100;, 12-14 &#1080;&#1102;&#1083;&#1103;</text><polygon fill="#181818" points="542,199.8828,552,203.8828,542,207.8828,546,203.8828" style="stroke:#181818;stroke-width:1.0;"/><line style="stroke:#181818;stroke-width:1.0;" x1="322" x2="548" y1="203.8828" y2="203.8828"/><text fill="#000000" font-family="sans-serif" font-size="13" lengthAdjust="spacing" textLength="208" x="329" y="199.0264">&#1085;&#1072;&#1081;&#1076;&#1080; &#1073;&#1080;&#1083;&#1077;&#1090;&#1099; (&#1076;&#1072;&#1090;&#1099;, &#1085;&#1072;&#1087;&#1088;&#1072;&#1074;&#1083;&#1077;&#1085;&#1080;&#1077;)</text><polygon fill="#181818" points="333,230.2344,323,234.2344,333,238.2344,329,234.2344" style="stroke:#181818;stroke-width:1.0;"/><line style="stroke:#181818;stroke-width:1.0;stroke-dasharray:2.0,2.0;" x1="327" x2="553" y1="234.2344" y2="234.2344"/><text fill="#000000" font-family="sans-serif" font-size="13" lengthAdjust="spacing" textLength="107" x="339" y="229.3779">&#1074;&#1072;&#1088;&#1080;&#1072;&#1085;&#1090;&#1099; &#1073;&#1080;&#1083;&#1077;&#1090;&#1086;&#1074;</text><polygon fill="#181818" points="723.5,260.5859,733.5,264.5859,723.5,268.5859,727.5,264.5859" style="stroke:#181818;stroke-width:1.0;"/><line style="stroke:#181818;stroke-width:1.0;" x1="322" x2="729.5" y1="264.5859" y2="264.5859"/><text fill="#000000" font-family="sans-serif" font-size="13" lengthAdjust="spacing" textLength="192" x="329" y="259.7295">&#1087;&#1088;&#1086;&#1074;&#1077;&#1088;&#1100; &#1087;&#1086; &#1073;&#1102;&#1076;&#1078;&#1077;&#1090;&#1091; &#1080; &#1087;&#1086;&#1083;&#1080;&#1090;&#1080;&#1082;&#1077;</text><polygon fill="#181818" points="918.5,290.9375,928.5,294.9375,918.5,298.9375,922.5,294.9375" style="stroke:#181818;stroke-width:1.0;"/><line style="stroke:#181818;stroke-width:1.0;" x1="735.5" x2="924.5" y1="294.9375" y2="294.9375"/><text fill="#000000" font-family="sans-serif" font-size="13" lengthAdjust="spacing" textLength="171" x="742.5" y="290.0811">retrieval &#1088;&#1077;&#1083;&#1077;&#1074;&#1072;&#1085;&#1090;&#1085;&#1099;&#1093; &#1087;&#1088;&#1072;&#1074;&#1080;&#1083;</text><polygon fill="#181818" points="746.5,321.2891,736.5,325.2891,746.5,329.2891,742.5,325.2891" style="stroke:#181818;stroke-width:1.0;"/><line style="stroke:#181818;stroke-width:1.0;stroke-dasharray:2.0,2.0;" x1="740.5" x2="929.5" y1="325.2891" y2="325.2891"/><text fill="#000000" font-family="sans-serif" font-size="13" lengthAdjust="spacing" textLength="122" x="752.5" y="320.4326">&#1092;&#1088;&#1072;&#1075;&#1084;&#1077;&#1085;&#1090;&#1099; &#1087;&#1086;&#1083;&#1080;&#1090;&#1080;&#1082;&#1080;</text><polygon fill="#181818" points="333,351.6406,323,355.6406,333,359.6406,329,355.6406" style="stroke:#181818;stroke-width:1.0;"/><line style="stroke:#181818;stroke-width:1.0;stroke-dasharray:2.0,2.0;" x1="327" x2="734.5" y1="355.6406" y2="355.6406"/><text fill="#000000" font-family="sans-serif" font-size="13" lengthAdjust="spacing" textLength="184" x="339" y="350.7842">&#1076;&#1086;&#1087;&#1091;&#1089;&#1090;&#1080;&#1084;&#1099;&#1081; &#1074;&#1072;&#1088;&#1080;&#1072;&#1085;&#1090; + &#1083;&#1080;&#1084;&#1080;&#1090;&#1099;</text><polygon fill="#181818" points="54,381.9922,44,385.9922,54,389.9922,50,385.9922" style="stroke:#181818;stroke-width:1.0;"/><line style="stroke:#181818;stroke-width:1.0;stroke-dasharray:2.0,2.0;" x1="48" x2="321" y1="385.9922" y2="385.9922"/><text fill="#000000" font-family="sans-serif" font-size="13" lengthAdjust="spacing" textLength="255" x="60" y="381.1357">&#1080;&#1090;&#1086;&#1075;&#1086;&#1074;&#1099;&#1081; &#1087;&#1083;&#1072;&#1085; (&#1073;&#1080;&#1083;&#1077;&#1090;&#1099; &#1074; &#1088;&#1072;&#1084;&#1082;&#1072;&#1093; &#1087;&#1086;&#1083;&#1080;&#1090;&#1080;&#1082;&#1080;)</text><!--SRC=[PLBDRjDW4Bn_Jx7AgH6DK16d7ZYWFWEdNjpKGXOXZHnJYLkQW3YaAXmuLGZ46vZ4fb_pOx_2xXinktRIs1m-nVayCpipwoHA1Y7nTyvvZRDaBnCkUC4fRzbpJlo0nunJ-SB-bFW7G5kSZFzoBXFglIB-1OAN6ruPqVFARhy1bqBKorJld0lwoLLC7VxDXKnb8ZE8w8nLXu8nVHY7iHi5SHBrer4mJ02yXru1Enb0q88E_fqFZzeckYRm_csR_xyl_eCVv5GfNXWD-7TXCcvHM-P1bBjwt9JJvro2lt_BtfH6LuEe_z5T1abm4On3whm9BV7PQ_NSPAILv-lB2-SqkJQ608I6VoBnigx_0IKzaWNOs5MstyzAPkT3D55OGEpBIhy7IXUsbTjZEddHEtb9ODpnMhuwrGUc3goZDEEZQXuK8tCwidtZwRY2b1YPOiJQQiT7qNKxaTwJRrW0pjjmLMbslPjUbQJuiWw21SejQJ-DbcL6wgjPM-vgFfJG7MJYC8cZy3eO4EIgRtXHMS2PosVQkuSPfvpUeGlvP6-Ng3VV-MxjTZ_oAMe6H2apkJ7CHkQwf4P-UaQg0LclebLw2DYkJydK2un50HMx11nCT7-u2LwG-Tle9sDXcjww_m00]--></g></svg>