<?xml version="1.0" encoding="us-ascii" standalone="no"?><svg xmlns="http://www.w3.org/2000/svg" xmlns:xlink="http://www.w3.org/1999/xlink" contentStyleType="text/css" height="582px" preserveAspectRatio="none" style="width:685px;height:582px;background:#FFFFFF;" version="1.1" viewBox="0 0 685 582" width="685px" zoomAndPan="magnify"><defs/><g><text fill="#000000" font-family="sans-serif" font-size="14" font-weight="bold" lengthAdjust="spacing" textLength="657" x="10" y="24.5332">&#1059;&#1084;&#1085;&#1099;&#1081; &#1087;&#1086;&#1084;&#1086;&#1097;&#1085;&#1080;&#1082; &#1087;&#1086; &#1082;&#1086;&#1084;&#1072;&#1085;&#1076;&#1080;&#1088;&#1086;&#1074;&#1082;&#1072;&#1084; &#8212; Multi-Agent &#1090;&#1086;&#1087;&#1086;&#1083;&#1086;&#1075;&#1080;&#1103; (&#1080;&#1077;&#1088;&#1072;&#1088;&#1093;&#1080;&#1103; &#1089; &#1082;&#1086;&#1086;&#1088;&#1076;&#1080;&#1085;&#1072;&#1090;&#1086;&#1088;&#1086;&#1084;)</text><!--entity user--><g id="elem_user"><ellipse cx="338.75" cy="52.6094" fill="#F1F1F1" rx="8" ry="8" style="stroke:#181818;stroke-width:0.5;"/><path d="M338.75,60.6094 L338.75,87.6094 M325.75,68.6094 L351.75,68.6094 M338.75,87.6094 L325.75,102.6094 M338.75,87.6094 L351.75,102.6094 " fill="none" style="stroke:#181818;stroke-width:0.5;"/><text fill="#000000" font-family="sans-serif" font-size="14" lengthAdjust="spacing" textLength="70" x="303.75" y="118.6426">&#1057;&#1086;&#1090;&#1088;&#1091;&#1076;&#1085;&#1080;&#1082;</text></g><!--entity mgr--><g id="elem_mgr"><rect fill="#F1F1F1" height="72.8281" rx="2.5" ry="2.5" style="stroke:#181818;stroke-width:0.5;" width="248" x="214.75" y="200.1094"/><text fill="#000000" font-family="sans-serif" font-size="14" lengthAdjust="spacing" textLength="211" x="224.75" y="224.6426">&#1040;&#1075;&#1077;&#1085;&#1090;-&#1050;&#1086;&#1086;&#1088;&#1076;&#1080;&#1085;&#1072;&#1090;&#1086;&#1088; (&#1052;&#1077;&#1085;&#1077;&#1076;&#1078;&#1077;&#1088;)</text><text fill="#000000" font-family="sans-serif" font-size="14" lengthAdjust="spacing" textLength="228" x="224.75" y="242.252">&#1087;&#1083;&#1072;&#1085;, &#1076;&#1077;&#1083;&#1077;&#1075;&#1080;&#1088;&#1086;&#1074;&#1072;&#1085;&#1080;&#1077;, &#1089;&#1073;&#1086;&#1088; &#1086;&#1090;&#1074;&#1077;&#1090;&#1072;</text><text fill="#000000" font-family="sans-serif" font-size="14" lengthAdjust="spacing" textLength="106" x="224.75" y="259.8613">&#1087;&#1072;&#1084;&#1103;&#1090;&#1100; &#1076;&#1080;&#1072;&#1083;&#1086;&#1075;&#1072;</text></g><!--entity tickets--><g id="elem_tickets"><rect fill="#F1F1F1" height="55.2188" rx="2.5" ry="2.5" style="stroke:#181818;stroke-width:0.5;" width="145" x="14.25" y="351.1094"/><text fill="#000000" font-family="sans-serif" font-size="14" lengthAdjust="spacing" textLength="125" x="24.25" y="375.6426">&#1055;&#1086;&#1080;&#1089;&#1082;&#1086;&#1074;&#1080;&#1082; &#1073;&#1080;&#1083;&#1077;&#1090;&#1086;&#1074;</text><text fill="#000000" font-family="sans-serif" font-size="14" lengthAdjust="spacing" textLength="118" x="24.25" y="393.252">tools: Avia/Rail API</text></g><!--entity policy--><g id="elem_policy"><rect fill="#F1F1F1" height="55.2188" rx="2.5" ry="2.5" style="stroke:#181818;stroke-width:0.5;" width="288" x="194.75" y="351.1094"/><text fill="#000000" font-family="sans-serif" font-size="14" lengthAdjust="spacing" textLength="202" x="204.75" y="375.6426">&#1040;&#1085;&#1072;&#1083;&#1080;&#1090;&#1080;&#1082; &#1073;&#1102;&#1076;&#1078;&#1077;&#1090;&#1072; &#1080; &#1087;&#1086;&#1083;&#1080;&#1090;&#1080;&#1082;&#1080;</text><text fill="#000000" font-family="sans-serif" font-size="14" lengthAdjust="spacing" textLength="268" x="204.75" y="393.252">tools: RAG-&#1079;&#1072;&#1087;&#1088;&#1086;&#1089;, &#1082;&#1072;&#1083;&#1100;&#1082;&#1091;&#1083;&#1103;&#1090;&#1086;&#1088; &#1083;&#1080;&#1084;&#1080;&#1090;&#1086;&#1074;</text></g><!--entity hotels--><g id="elem_hotels"><rect fill="#F1F1F1" height="55.2188" rx="2.5" ry="2.5" style="stroke:#181818;stroke-width:0.5;" width="160" x="517.75" y="351.1094"/><text fill="#000000" font-family="sans-serif" font-size="14" lengthAdjust="spacing" textLength="140" x="527.75" y="375.6426">&#1041;&#1088;&#1086;&#1085;&#1080;&#1088;&#1086;&#1074;&#1097;&#1080;&#1082; &#1086;&#1090;&#1077;&#1083;&#1077;&#1081;</text><text fill="#000000" font-family="sans-serif" font-size="14" lengthAdjust="spacing" textLength="102" x="527.75" y="393.252">tools: Hotels API</text></g><!--entity vdb--><g id="elem_vdb"><path d="M249.75,494.1094 C249.75,484.1094 338.75,484.1094 338.75,484.1094 C338.75,484.1094 427.75,484.1094 427.75,494.1094 L427.75,555.9375 C427.75,565.9375 338.75,565.9375 338.75,565.9375 C338.75,565.9375 249.75,565.9375 249.75,555.9375 L249.75,494.1094 " fill="#F1F1F1" style="stroke:#181818;stroke-width:0.5;"/><path d="M249.75,494.1094 C249.75,504.1094 338.75,504.1094 338.75,504.1094 C338.75,504.1094 427.75,504.1094 427.75,494.1094 " fill="none" style="stroke:#181818;stroke-width:0.5;"/><text fill="#000000" font-family="sans-serif" font-size="14" lengthAdjust="spacing" textLength="64" x="259.75" y="522.6426">Vector DB</text><text fill="#000000" font-family="sans-serif" font-size="14" lengthAdjust="spacing" textLength="158" x="259.75" y="540.252">&#1087;&#1086;&#1083;&#1080;&#1090;&#1080;&#1082;&#1072; &#1082;&#1086;&#1084;&#1072;&#1085;&#1076;&#1080;&#1088;&#1086;&#1074;&#1086;&#1082;</text><text fill="#000000" font-family="sans-serif" font-size="14" lengthAdjust="spacing" textLength="128" x="259.75" y="557.8613">(&#1073;&#1072;&#1079;&#1072; &#1079;&#1085;&#1072;&#1085;&#1080;&#1081;, RAG)</text></g><!--link user to mgr--><g id="link_user_mgr"><path d="M303.71,97.5894 C270.94,112.4494 229.34,138.4894 245.75,170.1094 C250.91,180.0494 258.35,188.7994 266.8,196.4094 " fill="none" id="user-to-mgr" style="stroke:#181818;stroke-width:1.0;"/><polygon fill="#181818" points="271.03,200.0394,266.8164,191.1374,267.2398,196.7784,261.5988,197.2017,271.03,200.0394" style="stroke:#181818;stroke-width:1.0;"/><text fill="#000000" font-family="sans-serif" font-size="13" lengthAdjust="spacing" textLength="139" x="246.75" y="166.6045">&#1079;&#1072;&#1076;&#1072;&#1095;&#1072; (&#1082;&#1086;&#1084;&#1072;&#1085;&#1076;&#1080;&#1088;&#1086;&#1074;&#1082;&#1072;)</text></g><!--link mgr to user--><g id="link_mgr_user"><path d="M378,200.0494 C388.93,185.8694 396.45,168.9294 390.75,152.1094 C387.61,142.8494 382.65,133.8494 377.01,125.5994 " fill="none" id="mgr-to-user" style="stroke:#181818;stroke-width:1.0;"/><polygon fill="#181818" points="373.82,121.0894,375.7449,130.7483,376.7045,125.1734,382.2794,126.133,373.82,121.0894" style="stroke:#181818;stroke-width:1.0;"/><text fill="#000000" font-family="sans-serif" font-size="13" lengthAdjust="spacing" textLength="138" x="393.75" y="166.6045">&#1080;&#1090;&#1086;&#1075;&#1086;&#1074;&#1099;&#1081; &#1087;&#1083;&#1072;&#1085; &#1087;&#1086;&#1077;&#1079;&#1076;&#1082;&#1080;</text></g><!--link mgr to tickets--><g id="link_mgr_tickets"><path d="M274.83,273.1194 C232.94,296.3894 178.83,326.4494 139.42,348.3494 " fill="none" id="mgr-to-tickets" style="stroke:#181818;stroke-width:1.0;"/><polygon fill="#181818" points="134.68,350.9794,144.49,350.1052,139.0508,348.5512,140.6048,343.112,134.68,350.9794" style="stroke:#181818;stroke-width:1.0;"/><text fill="#000000" font-family="sans-serif" font-size="13" lengthAdjust="spacing" textLength="79" x="221.75" y="317.6045">&#1085;&#1072;&#1081;&#1090;&#1080; &#1073;&#1080;&#1083;&#1077;&#1090;&#1099;</text></g><!--link mgr to policy--><g id="link_mgr_policy"><path d="M338.75,273.2994 C338.75,295.6494 338.75,324.1994 338.75,345.7794 " fill="none" id="mgr-to-policy" style="stroke:#181818;stroke-width:1.0;"/><polygon fill="#181818" points="338.75,350.8294,342.75,341.8294,338.75,345.8294,334.75,341.8294,338.75,350.8294" style="stroke:#181818;stroke-width:1.0;"/><text fill="#000000" font-family="sans-serif" font-size="13" lengthAdjust="spacing" textLength="176" x="339.75" y="317.6045">&#1087;&#1088;&#1086;&#1074;&#1077;&#1088;&#1080;&#1090;&#1100; &#1073;&#1102;&#1076;&#1078;&#1077;&#1090; / &#1087;&#1086;&#1083;&#1080;&#1090;&#1080;&#1082;&#1091;</text></g><!--link mgr to hotels--><g id="link_mgr_hotels"><path d="M463.03,272.4294 C484.42,280.8894 505.84,291.0594 524.75,303.1094 C543.04,314.7594 560.19,331.8094 573.27,346.6594 " fill="none" id="mgr-to-hotels" style="stroke:#181818;stroke-width:1.0;"/><polygon fill="#181818" points="576.84,350.7794,573.9643,341.3597,573.5637,347.0023,567.9211,346.6018,576.84,350.7794" style="stroke:#181818;stroke-width:1.0;"/><text fill="#000000" font-family="sans-serif" font-size="13" lengthAdjust="spacing" textLength="125" x="548.75" y="317.6045">&#1079;&#1072;&#1073;&#1088;&#1086;&#1085;&#1080;&#1088;&#1086;&#1074;&#1072;&#1090;&#1100; &#1086;&#1090;&#1077;&#1083;&#1100;</text></g><!--link policy to vdb--><g id="link_policy_vdb"><path d="M338.75,406.1094 C338.75,426.4194 338.75,454.9294 338.75,478.8294 " fill="none" id="policy-to-vdb" style="stroke:#181818;stroke-width:1.0;"/><polygon fill="#181818" points="338.75,483.8594,342.75,474.8594,338.75,478.8594,334.75,474.8594,338.75,483.8594" style="stroke:#181818;stroke-width:1.0;"/><text fill="#000000" font-family="sans-serif" font-size="13" lengthAdjust="spacing" textLength="101" x="339.75" y="450.6045">retrieval &#1087;&#1086;&#1083;&#1080;&#1090;&#1080;&#1082;&#1080;</text></g><!--SRC=[TLJ1RjDG4BpxArOv9LAYtdj02a823fMg7ZZbugPMi70JPBz6ufQcGWWreY1nGaW8yGCEZS69u-GNzlq2NyBiFjTAGpdOYTTlPcTcDp6XYGBY7xpcqbxpadZB6pnix7ikEUUL5eXNMarHMt1k9tZwYLhAQ_ep-Kn75v49Ezr1C3HaftWf90MkMno-eIQ8Ce1IEx5ljM8l7UK6LH22DXMS4gzRdkVtpIYc1dz7RGhK5Kwfd0Rv2LqaGUnvST0t_d00-Gt-Y4uP74mx_EKXMaZuAWTmBVYNY6drXb1PYAKsePZXUwPwdRbK-sLjIEMvKeWKlCXmJnKCz_O6ycQapTBASQeQpmTx4h_XPGwobT9hidDy54g8KczeHgCeEQJkEFGFJlmmekxnS-KoOVzLO98znwLsp85sPFP3vGtwY7EgXb0TuBnkSD9zsk7VG6_5gxriauwoi3DU8Ub2J3d7G6FgkHEeKbwFeh3_vfwIJvfOUPSS5aVrI5ekr6NT-Td8155I-tgfZvvtvXl_r4z0zYBGmJzvh07loayVti4Dhth39f9CnH7XLbQZMxR5Q4iRZSzEFK-sXZgTHp8QEYHDO845UGTSytyBtlBajA2g8GXIMYn5ryu8xNLzqcKa1xSLaIn_xZPbPqnqi3SZUrLpk6ZkPCxlHonRBLnLn7RcLIq52Q-0nO69ms3iH_-iGTr2yq03DzvRdLtr3w0_2uVC860XkBy0]--></g></svg>