<?xml version="1.0" encoding="us-ascii" standalone="no"?><svg xmlns="http://www.w3.org/2000/svg" xmlns:xlink="http://www.w3.org/1999/xlink" contentStyleType="text/css" height="359px" preserveAspectRatio="none" style="width:702px;height:359px;background:#FFFFFF;" version="1.1" viewBox="0 0 702 359" width="702px" zoomAndPan="magnify"><defs/><g><text fill="#000000" font-family="Arial" font-size="14" font-weight="bold" lengthAdjust="spacing" textLength="330" x="179" y="23.3608">TechnoMart &#8212; Observability &#1089;&#1090;&#1077;&#1082; &#1076;&#1083;&#1103; LLM/RAG</text><!--entity app--><g id="elem_app"><rect fill="#F1F1F1" height="52.1973" rx="2.5" ry="2.5" style="stroke:#181818;stroke-width:0.5;" width="263" x="194" y="44.0986"/><text fill="#000000" font-family="Arial" font-size="14" lengthAdjust="spacing" textLength="118" x="204" y="67.4595">LLM / RAG &#1089;&#1077;&#1088;&#1074;&#1080;&#1089;</text><text fill="#000000" font-family="Arial" font-size="14" lengthAdjust="spacing" textLength="243" x="204" y="83.5581">&#1080;&#1085;&#1089;&#1090;&#1088;&#1091;&#1084;&#1077;&#1085;&#1090;&#1080;&#1088;&#1086;&#1074;&#1072;&#1085;&#1080;&#1077; OpenTelemetry</text></g><!--entity prom--><g id="elem_prom"><rect fill="#F1F1F1" height="52.1973" rx="2.5" ry="2.5" style="stroke:#181818;stroke-width:0.5;" width="185" x="7" y="180.0986"/><text fill="#000000" font-family="Arial" font-size="14" lengthAdjust="spacing" textLength="76" x="17" y="203.4595">Prometheus</text><text fill="#000000" font-family="Arial" font-size="14" lengthAdjust="spacing" textLength="165" x="17" y="219.5581">&#1084;&#1077;&#1090;&#1088;&#1080;&#1082;&#1080; (Golden Signals)</text></g><!--entity tempo--><g id="elem_tempo"><rect fill="#F1F1F1" height="52.1973" rx="2.5" ry="2.5" style="stroke:#181818;stroke-width:0.5;" width="196" x="227.5" y="180.0986"/><text fill="#000000" font-family="Arial" font-size="14" lengthAdjust="spacing" textLength="44" x="237.5" y="203.4595">Tempo</text><text fill="#000000" font-family="Arial" font-size="14" lengthAdjust="spacing" textLength="176" x="237.5" y="219.5581">&#1088;&#1072;&#1089;&#1087;&#1088;&#1077;&#1076;&#1077;&#1083;&#1105;&#1085;&#1085;&#1099;&#1081; &#1090;&#1088;&#1077;&#1081;&#1089;&#1080;&#1085;&#1075;</text></g><!--entity lf--><g id="elem_lf"><rect fill="#F1F1F1" height="68.2959" rx="2.5" ry="2.5" style="stroke:#181818;stroke-width:0.5;" width="237" x="459" y="172.0986"/><text fill="#000000" font-family="Arial" font-size="14" lengthAdjust="spacing" textLength="59" x="469" y="195.4595">Langfuse</text><text fill="#000000" font-family="Arial" font-size="14" lengthAdjust="spacing" textLength="217" x="469" y="211.5581">LLM-&#1090;&#1088;&#1077;&#1081;&#1089;&#1099;: &#1090;&#1086;&#1082;&#1077;&#1085;&#1099;, &#1089;&#1090;&#1086;&#1080;&#1084;&#1086;&#1089;&#1090;&#1100;,</text><text fill="#000000" font-family="Arial" font-size="14" lengthAdjust="spacing" textLength="107" x="469" y="227.6567">&#1082;&#1072;&#1095;&#1077;&#1089;&#1090;&#1074;&#1086; &#1086;&#1090;&#1074;&#1077;&#1090;&#1072;</text></g><!--entity graf--><g id="elem_graf"><rect fill="#F1F1F1" height="52.1973" rx="2.5" ry="2.5" style="stroke:#181818;stroke-width:0.5;" width="196" x="227.5" y="301.0986"/><text fill="#000000" font-family="Arial" font-size="14" lengthAdjust="spacing" textLength="52" x="237.5" y="324.4595">Grafana</text><text fill="#000000" font-family="Arial" font-size="14" lengthAdjust="spacing" textLength="176" x="237.5" y="340.5581">&#1076;&#1072;&#1096;&#1073;&#1086;&#1088;&#1076;&#1099; + &#1072;&#1083;&#1077;&#1088;&#1090;&#1099; (SLO)</text></g><!--link app to prom--><g id="link_app_prom"><path d="M283.26,96.1486 C244.3,119.2386 186.58,153.4686 146.26,177.3786 " fill="none" id="app-to-prom" style="stroke:#181818;stroke-width:1.0;"/><polygon fill="#181818" points="141.92,179.9486,151.7029,178.8105,146.2238,177.4035,147.6307,171.9244,141.92,179.9486" style="stroke:#181818;stroke-width:1.0;"/><text fill="#000000" font-family="Arial" font-size="13" lengthAdjust="spacing" textLength="48" x="227.5" y="139.5051">&#1084;&#1077;&#1090;&#1088;&#1080;&#1082;&#1080;</text></g><!--link app to tempo--><g id="link_app_tempo"><path d="M325.5,96.2986 C325.5,118.5786 325.5,151.1086 325.5,174.7886 " fill="none" id="app-to-tempo" style="stroke:#181818;stroke-width:1.0;"/><polygon fill="#181818" points="325.5,180.0086,329.5,171.0086,325.5,175.0086,321.5,171.0086,325.5,180.0086" style="stroke:#181818;stroke-width:1.0;"/><text fill="#000000" font-family="Arial" font-size="13" lengthAdjust="spacing" textLength="36" x="326.5" y="139.5051">traces</text></g><!--link app to lf--><g id="link_app_lf"><path d="M372.6,96.1486 C411.58,116.8686 467.41,146.5586 510.95,169.7086 " fill="none" id="app-to-lf" style="stroke:#181818;stroke-width:1.0;"/><polygon fill="#181818" points="515.39,172.0786,509.3155,164.3262,510.9735,169.7346,505.5651,171.3926,515.39,172.0786" style="stroke:#181818;stroke-width:1.0;"/><text fill="#000000" font-family="Arial" font-size="13" lengthAdjust="spacing" textLength="108" x="452.5" y="139.5051">LLM-&#1090;&#1088;&#1077;&#1081;&#1089;&#1099; / cost</text></g><!--link prom to graf--><g id="link_prom_graf"><path d="M147.15,232.1886 C184.11,251.6486 235.28,278.5986 273.34,298.6286 " fill="none" id="prom-to-graf" style="stroke:#181818;stroke-width:1.0;"/><polygon fill="#181818" points="277.91,301.0386,271.8056,293.3097,273.4845,298.7117,268.0825,300.3905,277.91,301.0386" style="stroke:#181818;stroke-width:1.0;"/></g><!--link tempo to graf--><g id="link_tempo_graf"><path d="M325.5,232.3386 C325.5,250.8686 325.5,276.1386 325.5,295.7786 " fill="none" id="tempo-to-graf" style="stroke:#181818;stroke-width:1.0;"/><polygon fill="#181818" points="325.5,300.8986,329.5,291.8986,325.5,295.8986,321.5,291.8986,325.5,300.8986" style="stroke:#181818;stroke-width:1.0;"/></g><!--link lf to graf--><g id="link_lf_graf"><path d="M507.3,240.2486 C468.28,258.6786 420.3,281.3286 383.44,298.7386 " fill="none" id="lf-to-graf" style="stroke:#181818;stroke-width:1.0;"/><polygon fill="#181818" points="378.54,301.0486,388.3858,300.8028,383.0569,298.9045,384.9552,293.5757,378.54,301.0486" style="stroke:#181818;stroke-width:1.0;"/></g><!--SRC=[NL71JW8n5BplLxnumYZXxi74YrnGZ7BaKg4B6qjtqnQDDzI39cjYJFmGL3P15Fo5rr_mIvmj4SLJkvqtysPcNUAKf9Riz7Lw88oZhz4JDK-jDEVYD569koH_vQ-vu1dnXD_z0pKQ1xNZlNeKsRD4PyA80Tc-wAONYUvHB9ILVv2kZCLGkVrKkqCnaBHd4g6YoCYE4xg7rHkGenf148kuy2D-uQc_QckUyhnSxKV-XZzWO0uRK-0BJ8nv3hoWPYPrIoevaCvSRf2m9B9iJVx8f03xScWX2PbI4DGPJwbIJrLNQZf9UXgsDmC_m_nVVaiEihIjGHh3toVE0ZqKQE8H7kO-vpSAcWM_OG2c-JK8kPAu5XHdFBIohH6v-iln-GuK46iMGkRRoyONqFhWHQZWVXlcPt1mYm0b-C8B0bPUa8Z7OQEArvBNZOY55c1EmBpZPn16FF4vRH4AV2_BXdPEbPD6Snc-1qeKeKAgLdT35RH3wwsjq90Fi3EY8-tgMSLu-nyGFxYJMXS5nN8gB5egh3x1_Bb_0m00]--></g></svg>