<?xml version="1.0" encoding="us-ascii" standalone="no"?><svg xmlns="http://www.w3.org/2000/svg" xmlns:xlink="http://www.w3.org/1999/xlink" contentStyleType="text/css" height="972px" preserveAspectRatio="none" style="width:372px;height:972px;background:#FFFFFF;" version="1.1" viewBox="0 0 372 972" width="372px" zoomAndPan="magnify"><defs/><g><text fill="#000000" font-family="Arial" font-size="14" font-weight="bold" lengthAdjust="spacing" textLength="323" x="17.5" y="23.3608">TechnoMart &#8212; Security Layer &#1074;&#1086;&#1082;&#1088;&#1091;&#1075; LLM/RAG</text><!--entity user--><g id="elem_user"><ellipse cx="238.5" cy="51.0986" fill="#F1F1F1" rx="8" ry="8" style="stroke:#181818;stroke-width:0.5;"/><path d="M238.5,59.0986 L238.5,86.0986 M225.5,67.0986 L251.5,67.0986 M238.5,86.0986 L225.5,101.0986 M238.5,86.0986 L251.5,101.0986 " fill="none" style="stroke:#181818;stroke-width:0.5;"/><text fill="#000000" font-family="Arial" font-size="14" lengthAdjust="spacing" textLength="93" x="192" y="115.9595">&#1055;&#1086;&#1083;&#1100;&#1079;&#1086;&#1074;&#1072;&#1090;&#1077;&#1083;&#1100;</text></g><!--entity gw--><g id="elem_gw"><rect fill="#F1F1F1" height="68.2959" rx="2.5" ry="2.5" style="stroke:#181818;stroke-width:0.5;" width="165" x="88" y="178.5986"/><text fill="#000000" font-family="Arial" font-size="14" lengthAdjust="spacing" textLength="80" x="98" y="201.9595">API Gateway</text><text fill="#000000" font-family="Arial" font-size="14" lengthAdjust="spacing" textLength="133" x="98" y="218.0581">rate limiting, authN/Z,</text><text fill="#000000" font-family="Arial" font-size="14" lengthAdjust="spacing" textLength="145" x="98" y="234.1567">&#1087;&#1077;&#1088;&#1074;&#1072;&#1103; &#1083;&#1080;&#1085;&#1080;&#1103; &#1079;&#1072;&#1097;&#1080;&#1090;&#1099;</text></g><!--entity pii--><g id="elem_pii"><rect fill="#F1F1F1" height="68.2959" rx="2.5" ry="2.5" style="stroke:#181818;stroke-width:0.5;" width="273" x="7" y="306.5986"/><text fill="#000000" font-family="Arial" font-size="14" lengthAdjust="spacing" textLength="73" x="17" y="329.9595">PII Sanitizer</text><text fill="#000000" font-family="Arial" font-size="14" lengthAdjust="spacing" textLength="124" x="17" y="346.0581">&#1084;&#1072;&#1089;&#1082;&#1080;&#1088;&#1086;&#1074;&#1072;&#1085;&#1080;&#1077; &#1055;&#1044;&#1085;</text><text fill="#000000" font-family="Arial" font-size="14" lengthAdjust="spacing" textLength="253" x="17" y="362.1567">&#1060;&#1048;&#1054;/&#1090;&#1077;&#1083;&#1077;&#1092;&#1086;&#1085;/&#1072;&#1076;&#1088;&#1077;&#1089; -&gt; &#1087;&#1083;&#1077;&#1081;&#1089;&#1093;&#1086;&#1083;&#1076;&#1077;&#1088;&#1099;</text></g><!--entity ginp--><g id="elem_ginp"><rect fill="#F1F1F1" height="68.2959" rx="2.5" ry="2.5" style="stroke:#181818;stroke-width:0.5;" width="227" x="32" y="434.5986"/><text fill="#000000" font-family="Arial" font-size="14" lengthAdjust="spacing" textLength="101" x="42" y="457.9595">Input Guardrails</text><text fill="#000000" font-family="Arial" font-size="14" lengthAdjust="spacing" textLength="140" x="42" y="474.0581">&#1072;&#1085;&#1090;&#1080; Prompt Injection,</text><text fill="#000000" font-family="Arial" font-size="14" lengthAdjust="spacing" textLength="207" x="42" y="490.1567">&#1092;&#1080;&#1083;&#1100;&#1090;&#1088; &#1079;&#1072;&#1087;&#1088;&#1077;&#1097;&#1105;&#1085;&#1085;&#1099;&#1093; &#1079;&#1072;&#1087;&#1088;&#1086;&#1089;&#1086;&#1074;</text></g><!--entity rag--><g id="elem_rag"><rect fill="#F1F1F1" height="52.1973" rx="2.5" ry="2.5" style="stroke:#181818;stroke-width:0.5;" width="112" x="93.5" y="562.5986"/><text fill="#000000" font-family="Arial" font-size="14" lengthAdjust="spacing" textLength="92" x="103.5" y="585.9595">RAG Retriever</text><text fill="#000000" font-family="Arial" font-size="14" lengthAdjust="spacing" textLength="74" x="103.5" y="602.0581">(Vector DB)</text></g><!--entity llm--><g id="elem_llm"><rect fill="#F1F1F1" height="52.1973" rx="2.5" ry="2.5" style="stroke:#181818;stroke-width:0.5;" width="144" x="84.5" y="674.5986"/><text fill="#000000" font-family="Arial" font-size="14" lengthAdjust="spacing" textLength="27" x="94.5" y="697.9595">LLM</text><text fill="#000000" font-family="Arial" font-size="14" lengthAdjust="spacing" textLength="124" x="94.5" y="714.0581">self-hosted Llama 3</text></g><!--entity gout--><g id="elem_gout"><rect fill="#F1F1F1" height="68.2959" rx="2.5" ry="2.5" style="stroke:#181818;stroke-width:0.5;" width="243" x="36" y="786.5986"/><text fill="#000000" font-family="Arial" font-size="14" lengthAdjust="spacing" textLength="113" x="46" y="809.9595">Output Guardrails</text><text fill="#000000" font-family="Arial" font-size="14" lengthAdjust="spacing" textLength="157" x="46" y="826.0581">&#1074;&#1072;&#1083;&#1080;&#1076;&#1072;&#1094;&#1080;&#1103; &#1087;&#1086; &#1082;&#1072;&#1090;&#1072;&#1083;&#1086;&#1075;&#1091;,</text><text fill="#000000" font-family="Arial" font-size="14" lengthAdjust="spacing" textLength="223" x="46" y="842.1567">&#1072;&#1085;&#1090;&#1080;-&#1075;&#1072;&#1083;&#1083;&#1102;&#1094;&#1080;&#1085;&#1072;&#1094;&#1080;&#1080;, PII-&#1087;&#1088;&#1086;&#1074;&#1077;&#1088;&#1082;&#1072;</text></g><!--entity restore--><g id="elem_restore"><rect fill="#F1F1F1" height="52.1973" rx="2.5" ry="2.5" style="stroke:#181818;stroke-width:0.5;" width="243" x="123" y="914.5986"/><text fill="#000000" font-family="Arial" font-size="14" lengthAdjust="spacing" textLength="223" x="133" y="937.9595">&#1042;&#1086;&#1089;&#1089;&#1090;&#1072;&#1085;&#1086;&#1074;&#1083;&#1077;&#1085;&#1080;&#1077; &#1087;&#1077;&#1088;&#1089;&#1086;&#1085;&#1072;&#1083;&#1080;&#1079;&#1072;&#1094;&#1080;&#1080;</text><text fill="#000000" font-family="Arial" font-size="14" lengthAdjust="spacing" textLength="182" x="133" y="954.0581">(&#1087;&#1086;&#1076;&#1089;&#1090;&#1072;&#1085;&#1086;&#1074;&#1082;&#1072; &#1055;&#1044;&#1085; &#1086;&#1073;&#1088;&#1072;&#1090;&#1085;&#1086;)</text></g><!--link user to gw--><g id="link_user_gw"><path d="M219.01,118.8486 C210.05,135.9986 199.42,156.3086 190.4,173.5586 " fill="none" id="user-to-gw" style="stroke:#181818;stroke-width:1.0;"/><polygon fill="#181818" points="187.9,178.3286,195.6135,172.2047,190.2158,173.8972,188.5233,168.4995,187.9,178.3286" style="stroke:#181818;stroke-width:1.0;"/></g><!--link gw to pii--><g id="link_gw_pii"><path d="M163.41,246.7086 C159.84,263.3586 155.49,283.6386 151.77,300.9886 " fill="none" id="gw-to-pii" style="stroke:#181818;stroke-width:1.0;"/><polygon fill="#181818" points="150.64,306.2786,156.4529,298.3281,151.6974,301.3917,148.6338,296.6363,150.64,306.2786" style="stroke:#181818;stroke-width:1.0;"/></g><!--link pii to ginp--><g id="link_pii_ginp"><path d="M144.03,374.7086 C144.29,391.3586 144.61,411.6386 144.89,428.9886 " fill="none" id="pii-to-ginp" style="stroke:#181818;stroke-width:1.0;"/><polygon fill="#181818" points="144.97,434.2786,148.8151,425.2114,144.8843,429.2794,140.8163,425.3485,144.97,434.2786" style="stroke:#181818;stroke-width:1.0;"/></g><!--link ginp to rag--><g id="link_ginp_rag"><path d="M146.62,502.7786 C147.21,519.9586 147.91,540.7686 148.48,557.4686 " fill="none" id="ginp-to-rag" style="stroke:#181818;stroke-width:1.0;"/><polygon fill="#181818" points="148.65,562.5186,152.3393,553.3869,148.4787,557.5216,144.344,553.661,148.65,562.5186" style="stroke:#181818;stroke-width:1.0;"/></g><!--link rag to llm--><g id="link_rag_llm"><path d="M151.11,614.8386 C152.14,631.0486 153.48,652.1886 154.57,669.3086 " fill="none" id="rag-to-llm" style="stroke:#181818;stroke-width:1.0;"/><polygon fill="#181818" points="154.9,674.4786,158.3259,665.2448,154.5854,669.4885,150.3417,665.7481,154.9,674.4786" style="stroke:#181818;stroke-width:1.0;"/></g><!--link llm to gout--><g id="link_llm_gout"><path d="M156.71,726.6186 C156.85,742.4386 157.02,763.1986 157.17,781.0886 " fill="none" id="llm-to-gout" style="stroke:#181818;stroke-width:1.0;"/><polygon fill="#181818" points="157.22,786.5386,161.1427,777.5047,157.1771,781.5388,153.143,777.5732,157.22,786.5386" style="stroke:#181818;stroke-width:1.0;"/></g><!--link gout to restore--><g id="link_gout_restore"><path d="M181.97,854.7786 C194.85,872.2486 210.5,893.4886 222.92,910.3386 " fill="none" id="gout-to-restore" style="stroke:#181818;stroke-width:1.0;"/><polygon fill="#181818" points="226.01,914.5186,223.9089,904.8965,223.0513,910.488,217.4599,909.6304,226.01,914.5186" style="stroke:#181818;stroke-width:1.0;"/></g><!--link restore to user--><g id="link_restore_user"><path d="M262.87,914.3086 C273.99,897.9686 287.69,875.8486 296.5,854.5986 C323.3,789.9786 333.5,771.5586 333.5,701.5986 C333.5,339.5986 333.5,339.5986 333.5,339.5986 C333.5,259.2086 292.38,172.9286 264.25,123.2986 " fill="none" id="restore-to-user" style="stroke:#181818;stroke-width:1.0;"/><polygon fill="#181818" points="261.74,118.9086,262.7392,128.7067,264.2238,123.2481,269.6823,124.7326,261.74,118.9086" style="stroke:#181818;stroke-width:1.0;"/></g><!--SRC=[PLBBRjD05DtxAwww0YbH5koHWX1LfBHKBMA1kXab4sV0iQFncAYiqfGYLKKWK1UiOCC7GDieeI7fBzpv1Rw4SyT6jOGis_CuSyuzzumpBj7qJFU6QRQZhAC_qmiwqBt26dT4NNMaBV4bR_Z6J_q9Nr6tkzFQRsz7KVxAf6DbrOZoeUfd4vF6D519hcixVJrGHUAUPAdRLIDDRMjK4aMgvp9BM_mDl2l_dXVuN_8FF-EvpBT8vLJasaQHrJsdqXWbRhNtEhIjd9weeyFKOa296Ha7sGQfmWrtMoyQXodVyjnF0zj7uXKlUSrB6IwmSeRXp9y7_dXI9z_hTEX0fQ1xeorOVWDzp3V0JylQX8RdX98lU0t0T_x2NrjbnL1y2zIw1TWr3ipzCJKV4ah15l_on_vKZFArb5R9ZusfwtVISU5ekr2sRvL9SYX04lHBshFPQEoeaxu4t6GfJ49kAOs2cMbmnhT1zin_GfrhV-vFxvOtC08BfMa4KvT5aBIldJNwjTY-zro7P1u_kX_WLiLrDA8_J7ET39h3B7UwJzr4ZHGz2DWa6TMnJmltdoDfeoHoZUQ-ArEvvGsXpHAzx6tuofyqximt-Igih_m7EG5puIGl6uJ4cgK_y4haO2azPeMhLyAVfGLuPY55WKiiLPxXkeGEhQlg5lyqq0-f3v7MpqAckWM4-Ky8I_7OgrgcStHGHv7SNshY6k2YnPCmaipnbgkIX7p2B3HQnM4iZSHReiIBV4fKnLtzmvh8_0K0]--></g></svg>