<?xml version="1.0" encoding="us-ascii" standalone="no"?><svg xmlns="http://www.w3.org/2000/svg" xmlns:xlink="http://www.w3.org/1999/xlink" contentStyleType="text/css" height="417px" preserveAspectRatio="none" style="width:639px;height:417px;background:#FFFFFF;" version="1.1" viewBox="0 0 639 417" width="639px" zoomAndPan="magnify"><defs/><g><text fill="#000000" font-family="Arial" font-size="14" font-weight="bold" lengthAdjust="spacing" textLength="283" x="176.5" y="33.3608">TechnoMart &#8212; Canary release &#1089; rollback</text><ellipse cx="362.125" cy="57.0986" fill="#222222" rx="10" ry="10" style="stroke:#222222;stroke-width:1.0;"/><rect fill="#F1F1F1" height="47.5977" rx="12.5" ry="12.5" style="stroke:#181818;stroke-width:0.5;" width="138" x="293.125" y="87.0986"/><text fill="#000000" font-family="Arial" font-size="12" lengthAdjust="spacing" textLength="118" x="303.125" y="108.5508">Deploy &#1085;&#1086;&#1074;&#1086;&#1081; &#1074;&#1077;&#1088;&#1089;&#1080;&#1080;</text><text fill="#000000" font-family="Arial" font-size="12" lengthAdjust="spacing" textLength="77" x="303.125" y="122.3496">(0% &#1090;&#1088;&#1072;&#1092;&#1080;&#1082;&#1072;)</text><rect fill="#F1F1F1" height="33.7988" rx="12.5" ry="12.5" style="stroke:#181818;stroke-width:0.5;" width="153" x="285.625" y="154.6963"/><text fill="#000000" font-family="Arial" font-size="12" lengthAdjust="spacing" textLength="133" x="295.625" y="176.1484">&#1055;&#1077;&#1088;&#1077;&#1074;&#1077;&#1089;&#1090;&#1080; 1% &#1090;&#1088;&#1072;&#1092;&#1080;&#1082;&#1072;</text><polygon fill="#F1F1F1" points="315.125,208.4951,409.125,208.4951,421.125,220.4951,409.125,232.4951,315.125,232.4951,303.125,220.4951,315.125,208.4951" style="stroke:#181818;stroke-width:0.5;"/><text fill="#000000" font-family="Arial" font-size="11" lengthAdjust="spacing" textLength="94" x="315.125" y="224.6685">&#1084;&#1077;&#1090;&#1088;&#1080;&#1082;&#1080; &#1074; &#1085;&#1086;&#1088;&#1084;&#1077;?</text><text fill="#000000" font-family="Arial" font-size="11" lengthAdjust="spacing" textLength="12" x="291.125" y="218.344">&#1076;&#1072;</text><text fill="#000000" font-family="Arial" font-size="11" lengthAdjust="spacing" textLength="18" x="421.125" y="218.344">&#1085;&#1077;&#1090;</text><rect fill="#F1F1F1" height="33.7988" rx="12.5" ry="12.5" style="stroke:#181818;stroke-width:0.5;" width="153" x="119.75" y="242.4951"/><text fill="#000000" font-family="Arial" font-size="12" lengthAdjust="spacing" textLength="133" x="129.75" y="263.9473">&#1055;&#1077;&#1088;&#1077;&#1074;&#1077;&#1089;&#1090;&#1080; 5% &#1090;&#1088;&#1072;&#1092;&#1080;&#1082;&#1072;</text><polygon fill="#F1F1F1" points="149.25,296.2939,243.25,296.2939,255.25,308.2939,243.25,320.2939,149.25,320.2939,137.25,308.2939,149.25,296.2939" style="stroke:#181818;stroke-width:0.5;"/><text fill="#000000" font-family="Arial" font-size="11" lengthAdjust="spacing" textLength="94" x="149.25" y="312.4673">&#1084;&#1077;&#1090;&#1088;&#1080;&#1082;&#1080; &#1074; &#1085;&#1086;&#1088;&#1084;&#1077;?</text><text fill="#000000" font-family="Arial" font-size="11" lengthAdjust="spacing" textLength="12" x="125.25" y="306.1428">&#1076;&#1072;</text><text fill="#000000" font-family="Arial" font-size="11" lengthAdjust="spacing" textLength="18" x="255.25" y="306.1428">&#1085;&#1077;&#1090;</text><rect fill="#F1F1F1" height="33.7988" rx="12.5" ry="12.5" style="stroke:#181818;stroke-width:0.5;" width="167" x="11" y="330.2939"/><text fill="#000000" font-family="Arial" font-size="12" lengthAdjust="spacing" textLength="147" x="21" y="351.7461">&#1055;&#1077;&#1088;&#1077;&#1074;&#1077;&#1089;&#1090;&#1080; 100% &#1090;&#1088;&#1072;&#1092;&#1080;&#1082;&#1072;</text><ellipse cx="94.5" cy="395.0928" fill="none" rx="11" ry="11" style="stroke:#222222;stroke-width:1.0;"/><ellipse cx="94.5" cy="395.0928" fill="#222222" rx="6" ry="6" style="stroke:#111111;stroke-width:1.0;"/><rect fill="#F1F1F1" height="33.7988" rx="12.5" ry="12.5" style="stroke:#181818;stroke-width:0.5;" width="200" x="198" y="330.2939"/><text fill="#000000" font-family="Arial" font-size="12" lengthAdjust="spacing" textLength="180" x="208" y="351.7461">Rollback &#1085;&#1072; &#1089;&#1090;&#1072;&#1073;&#1080;&#1083;&#1100;&#1085;&#1091;&#1102; &#1074;&#1077;&#1088;&#1089;&#1080;&#1102;</text><ellipse cx="298" cy="395.0928" fill="none" rx="11" ry="11" style="stroke:#222222;stroke-width:1.0;"/><ellipse cx="298" cy="395.0928" fill="#222222" rx="6" ry="6" style="stroke:#111111;stroke-width:1.0;"/><rect fill="#F1F1F1" height="33.7988" rx="12.5" ry="12.5" style="stroke:#181818;stroke-width:0.5;" width="200" x="428" y="242.4951"/><text fill="#000000" font-family="Arial" font-size="12" lengthAdjust="spacing" textLength="180" x="438" y="263.9473">Rollback &#1085;&#1072; &#1089;&#1090;&#1072;&#1073;&#1080;&#1083;&#1100;&#1085;&#1091;&#1102; &#1074;&#1077;&#1088;&#1089;&#1080;&#1102;</text><ellipse cx="528" cy="307.2939" fill="none" rx="11" ry="11" style="stroke:#222222;stroke-width:1.0;"/><ellipse cx="528" cy="307.2939" fill="#222222" rx="6" ry="6" style="stroke:#111111;stroke-width:1.0;"/><line style="stroke:#181818;stroke-width:1.0;" x1="362.125" x2="362.125" y1="67.0986" y2="87.0986"/><polygon fill="#181818" points="358.125,77.0986,362.125,87.0986,366.125,77.0986,362.125,81.0986" style="stroke:#181818;stroke-width:1.0;"/><line style="stroke:#181818;stroke-width:1.0;" x1="362.125" x2="362.125" y1="134.6963" y2="154.6963"/><polygon fill="#181818" points="358.125,144.6963,362.125,154.6963,366.125,144.6963,362.125,148.6963" style="stroke:#181818;stroke-width:1.0;"/><line style="stroke:#181818;stroke-width:1.0;" x1="94.5" x2="94.5" y1="364.0928" y2="384.0928"/><polygon fill="#181818" points="90.5,374.0928,94.5,384.0928,98.5,374.0928,94.5,378.0928" style="stroke:#181818;stroke-width:1.0;"/><line style="stroke:#181818;stroke-width:1.0;" x1="298" x2="298" y1="364.0928" y2="384.0928"/><polygon fill="#181818" points="294,374.0928,298,384.0928,302,374.0928,298,378.0928" style="stroke:#181818;stroke-width:1.0;"/><line style="stroke:#181818;stroke-width:1.0;" x1="137.25" x2="94.5" y1="308.2939" y2="308.2939"/><line style="stroke:#181818;stroke-width:1.0;" x1="94.5" x2="94.5" y1="308.2939" y2="330.2939"/><polygon fill="#181818" points="90.5,320.2939,94.5,330.2939,98.5,320.2939,94.5,324.2939" style="stroke:#181818;stroke-width:1.0;"/><line style="stroke:#181818;stroke-width:1.0;" x1="255.25" x2="298" y1="308.2939" y2="308.2939"/><line style="stroke:#181818;stroke-width:1.0;" x1="298" x2="298" y1="308.2939" y2="330.2939"/><polygon fill="#181818" points="294,320.2939,298,330.2939,302,320.2939,298,324.2939" style="stroke:#181818;stroke-width:1.0;"/><line style="stroke:#181818;stroke-width:1.0;" x1="196.25" x2="196.25" y1="276.2939" y2="296.2939"/><polygon fill="#181818" points="192.25,286.2939,196.25,296.2939,200.25,286.2939,196.25,290.2939" style="stroke:#181818;stroke-width:1.0;"/><line style="stroke:#181818;stroke-width:1.0;" x1="528" x2="528" y1="276.2939" y2="296.2939"/><polygon fill="#181818" points="524,286.2939,528,296.2939,532,286.2939,528,290.2939" style="stroke:#181818;stroke-width:1.0;"/><line style="stroke:#181818;stroke-width:1.0;" x1="303.125" x2="196.25" y1="220.4951" y2="220.4951"/><line style="stroke:#181818;stroke-width:1.0;" x1="196.25" x2="196.25" y1="220.4951" y2="242.4951"/><polygon fill="#181818" points="192.25,232.4951,196.25,242.4951,200.25,232.4951,196.25,236.4951" style="stroke:#181818;stroke-width:1.0;"/><line style="stroke:#181818;stroke-width:1.0;" x1="421.125" x2="528" y1="220.4951" y2="220.4951"/><line style="stroke:#181818;stroke-width:1.0;" x1="528" x2="528" y1="220.4951" y2="242.4951"/><polygon fill="#181818" points="524,232.4951,528,242.4951,532,232.4951,528,236.4951" style="stroke:#181818;stroke-width:1.0;"/><line style="stroke:#181818;stroke-width:1.0;" x1="362.125" x2="362.125" y1="188.4951" y2="208.4951"/><polygon fill="#181818" points="358.125,198.4951,362.125,208.4951,366.125,198.4951,362.125,202.4951" style="stroke:#181818;stroke-width:1.0;"/><!--SRC=[dT2zJiCm40VmtKzn2rAxfGDBEo04OeC1yG97un2hhXqvHgXRKXXH9tPU8I0gXO_m3ETNu4cuH1rAoGA3PVlyz- -ayyfh2HTocXfxYix3L_40HsZGBS19BJ6N44fmLkjBdCw4o6VAPEXm3dcAiRrHvWeIrBdSUebbWjVQdrZZpt0kuT0frFpLSmCnFfQPjWkWXZxfcTShyBOEHIYffbeCeZq8or1G5Uwuy4RLS2B6zDX6QDr5ox2a6aQxkObG2GpeWnDjlQtLR7UT-CxrWo7uL1eElJ0h0FhS_Tykm9_bVdiKHNqwGEvjnWV9WsIZQHjjbFFDwDjc5NHEHK_yzptSKnDkmsfhVc7rapEnIiGk-X-o0plk6m00]--></g></svg>