<?xml version="1.0" encoding="us-ascii" standalone="no"?><svg xmlns="http://www.w3.org/2000/svg" xmlns:xlink="http://www.w3.org/1999/xlink" contentStyleType="text/css" height="663px" preserveAspectRatio="none" style="width:345px;height:663px;background:#FFFFFF;" version="1.1" viewBox="0 0 345 663" width="345px" zoomAndPan="magnify"><defs/><g><text fill="#000000" font-family="Arial" font-size="14" font-weight="bold" lengthAdjust="spacing" textLength="280" x="31" y="33.3608">TechnoMart &#8212; CI/CD + MLOps &#1087;&#1072;&#1081;&#1087;&#1083;&#1072;&#1081;&#1085;</text><ellipse cx="172.5" cy="57.0986" fill="#222222" rx="10" ry="10" style="stroke:#222222;stroke-width:1.0;"/><line style="stroke:#181818;stroke-width:1.5;" x1="75" x2="250.5" y1="87.0986" y2="87.0986"/><rect fill="#F1F1F1" height="33.7988" rx="12.5" ry="12.5" style="stroke:#181818;stroke-width:0.5;" width="90" x="30" y="155.2969"/><text fill="#000000" font-family="Arial" font-size="12" lengthAdjust="spacing" textLength="70" x="40" y="176.749">Commit (Git)</text><rect fill="#F1F1F1" height="33.7988" rx="12.5" ry="12.5" style="stroke:#181818;stroke-width:0.5;" width="128" x="11" y="224.0957"/><text fill="#000000" font-family="Arial" font-size="12" lengthAdjust="spacing" textLength="108" x="21" y="245.5479">Build Docker image</text><rect fill="#F1F1F1" height="33.7988" rx="12.5" ry="12.5" style="stroke:#181818;stroke-width:0.5;" width="128" x="11" y="292.8945"/><text fill="#000000" font-family="Arial" font-size="12" lengthAdjust="spacing" textLength="108" x="21" y="314.3467">Unit + Security tests</text><rect fill="#F1F1F1" height="47.5977" rx="12.5" ry="12.5" style="stroke:#181818;stroke-width:0.5;" width="167" x="167" y="107.0986"/><text fill="#000000" font-family="Arial" font-size="12" lengthAdjust="spacing" textLength="109" x="177" y="128.5508">&#1044;&#1072;&#1090;&#1072;&#1089;&#1077;&#1090; &#1086;&#1073;&#1085;&#1086;&#1074;&#1080;&#1083;&#1089;&#1103;</text><text fill="#000000" font-family="Arial" font-size="12" lengthAdjust="spacing" textLength="147" x="177" y="142.3496">(&#1085;&#1086;&#1074;&#1099;&#1077; &#1089;&#1086;&#1073;&#1099;&#1090;&#1080;&#1103; / &#1082;&#1072;&#1090;&#1072;&#1083;&#1086;&#1075;)</text><rect fill="#F1F1F1" height="33.7988" rx="12.5" ry="12.5" style="stroke:#181818;stroke-width:0.5;" width="151" x="175" y="189.6963"/><text fill="#000000" font-family="Arial" font-size="12" lengthAdjust="spacing" textLength="131" x="185" y="211.1484">Airflow trigger -&gt; Retrain</text><rect fill="#F1F1F1" height="47.5977" rx="12.5" ry="12.5" style="stroke:#181818;stroke-width:0.5;" width="159" x="171" y="258.4951"/><text fill="#000000" font-family="Arial" font-size="12" lengthAdjust="spacing" textLength="64" x="181" y="279.9473">Quality gate</text><text fill="#000000" font-family="Arial" font-size="12" lengthAdjust="spacing" textLength="139" x="181" y="293.7461">(offline-&#1084;&#1077;&#1090;&#1088;&#1080;&#1082;&#1080; / Ragas)</text><rect fill="#F1F1F1" height="33.7988" rx="12.5" ry="12.5" style="stroke:#181818;stroke-width:0.5;" width="150" x="175.5" y="341.0928"/><text fill="#000000" font-family="Arial" font-size="12" lengthAdjust="spacing" textLength="130" x="185.5" y="362.5449">Model Registry (MLflow)</text><line style="stroke:#181818;stroke-width:1.5;" x1="75" x2="250.5" y1="394.8916" y2="394.8916"/><rect fill="#F1F1F1" height="33.7988" rx="12.5" ry="12.5" style="stroke:#181818;stroke-width:0.5;" width="117" x="114" y="414.8916"/><text fill="#000000" font-family="Arial" font-size="12" lengthAdjust="spacing" textLength="97" x="124" y="436.3438">Deploy -&gt; Staging</text><rect fill="#F1F1F1" height="33.7988" rx="12.5" ry="12.5" style="stroke:#181818;stroke-width:0.5;" width="73" x="136" y="468.6904"/><text fill="#000000" font-family="Arial" font-size="12" lengthAdjust="spacing" textLength="53" x="146" y="490.1426">E2E tests</text><rect fill="#F1F1F1" height="33.7988" rx="12.5" ry="12.5" style="stroke:#181818;stroke-width:0.5;" width="151" x="97" y="522.4893"/><text fill="#000000" font-family="Arial" font-size="12" lengthAdjust="spacing" textLength="131" x="107" y="543.9414">Deploy -&gt; Prod (Canary)</text><rect fill="#F1F1F1" height="33.7988" rx="12.5" ry="12.5" style="stroke:#181818;stroke-width:0.5;" width="168" x="88.5" y="576.2881"/><text fill="#000000" font-family="Arial" font-size="12" lengthAdjust="spacing" textLength="148" x="98.5" y="597.7402">&#1052;&#1086;&#1085;&#1080;&#1090;&#1086;&#1088;&#1080;&#1085;&#1075; (Observability)</text><ellipse cx="172.5" cy="641.0869" fill="none" rx="11" ry="11" style="stroke:#222222;stroke-width:1.0;"/><ellipse cx="172.5" cy="641.0869" fill="#222222" rx="6" ry="6" style="stroke:#111111;stroke-width:1.0;"/><line style="stroke:#181818;stroke-width:1.0;" x1="75" x2="75" y1="189.0957" y2="224.0957"/><polygon fill="#181818" points="71,214.0957,75,224.0957,79,214.0957,75,218.0957" style="stroke:#181818;stroke-width:1.0;"/><line style="stroke:#181818;stroke-width:1.0;" x1="75" x2="75" y1="257.8945" y2="292.8945"/><polygon fill="#181818" points="71,282.8945,75,292.8945,79,282.8945,75,286.8945" style="stroke:#181818;stroke-width:1.0;"/><line style="stroke:#181818;stroke-width:1.0;" x1="250.5" x2="250.5" y1="154.6963" y2="189.6963"/><polygon fill="#181818" points="246.5,179.6963,250.5,189.6963,254.5,179.6963,250.5,183.6963" style="stroke:#181818;stroke-width:1.0;"/><line style="stroke:#181818;stroke-width:1.0;" x1="250.5" x2="250.5" y1="223.4951" y2="258.4951"/><polygon fill="#181818" points="246.5,248.4951,250.5,258.4951,254.5,248.4951,250.5,252.4951" style="stroke:#181818;stroke-width:1.0;"/><line style="stroke:#181818;stroke-width:1.0;" x1="250.5" x2="250.5" y1="306.0928" y2="341.0928"/><polygon fill="#181818" points="246.5,331.0928,250.5,341.0928,254.5,331.0928,250.5,335.0928" style="stroke:#181818;stroke-width:1.0;"/><line style="stroke:#181818;stroke-width:1.0;" x1="75" x2="75" y1="88.5986" y2="155.2969"/><polygon fill="#181818" points="71,145.2969,75,155.2969,79,145.2969,75,149.2969" style="stroke:#181818;stroke-width:1.0;"/><line style="stroke:#181818;stroke-width:1.0;" x1="250.5" x2="250.5" y1="88.5986" y2="107.0986"/><polygon fill="#181818" points="246.5,97.0986,250.5,107.0986,254.5,97.0986,250.5,101.0986" style="stroke:#181818;stroke-width:1.0;"/><line style="stroke:#181818;stroke-width:1.0;" x1="75" x2="75" y1="326.6934" y2="394.8916"/><polygon fill="#181818" points="71,384.8916,75,394.8916,79,384.8916,75,388.8916" style="stroke:#181818;stroke-width:1.0;"/><line style="stroke:#181818;stroke-width:1.0;" x1="250.5" x2="250.5" y1="374.8916" y2="394.8916"/><polygon fill="#181818" points="246.5,384.8916,250.5,394.8916,254.5,384.8916,250.5,388.8916" style="stroke:#181818;stroke-width:1.0;"/><line style="stroke:#181818;stroke-width:1.0;" x1="172.5" x2="172.5" y1="67.0986" y2="87.0986"/><polygon fill="#181818" points="168.5,77.0986,172.5,87.0986,176.5,77.0986,172.5,81.0986" style="stroke:#181818;stroke-width:1.0;"/><line style="stroke:#181818;stroke-width:1.0;" x1="172.5" x2="172.5" y1="396.3916" y2="414.8916"/><polygon fill="#181818" points="168.5,404.8916,172.5,414.8916,176.5,404.8916,172.5,408.8916" style="stroke:#181818;stroke-width:1.0;"/><line style="stroke:#181818;stroke-width:1.0;" x1="172.5" x2="172.5" y1="448.6904" y2="468.6904"/><polygon fill="#181818" points="168.5,458.6904,172.5,468.6904,176.5,458.6904,172.5,462.6904" style="stroke:#181818;stroke-width:1.0;"/><line style="stroke:#181818;stroke-width:1.0;" x1="172.5" x2="172.5" y1="502.4893" y2="522.4893"/><polygon fill="#181818" points="168.5,512.4893,172.5,522.4893,176.5,512.4893,172.5,516.4893" style="stroke:#181818;stroke-width:1.0;"/><line style="stroke:#181818;stroke-width:1.0;" x1="172.5" x2="172.5" y1="556.2881" y2="576.2881"/><polygon fill="#181818" points="168.5,566.2881,172.5,576.2881,176.5,566.2881,172.5,570.2881" style="stroke:#181818;stroke-width:1.0;"/><line style="stroke:#181818;stroke-width:1.0;" x1="172.5" x2="172.5" y1="610.0869" y2="630.0869"/><polygon fill="#181818" points="168.5,620.0869,172.5,630.0869,176.5,620.0869,172.5,624.0869" style="stroke:#181818;stroke-width:1.0;"/><!--SRC=[JL1BIWD14DtFAMev8a5mcO2WIHJ1-4dq06McPspiwHwwAqfs9jiiid7f8VmWn6ZY5Mgku4cioI2uw6gez-gzLqMQZ89BDRonheUUuEVX4Th7E-qER4FlvAm8mD_yp1zIFpV_Aeh2hRO5UimXt63YxhND84KJr3yaKIcE31qwIwUOAzZt6esCafX4eJ2Q8e1cs-Mv9eYFD6srgiR1I9i4Ecvugppe73ErQLzPOMt3G0r7NjCOI0KAhLe7C4DjAnO_ydCvbJVXzt8AlEONNabzvGL_bfDoBgIuxfGpVWVX2QMSoSoYdCCEyB8Ma5NN_5OdsjS-DUuUoEiiar2DFUWhycAvWIz6QAf46PAgv5sQ6crLWx-g3EM3M2zv8TfzYHbgoPvBb16LJ0VoOuXx9vM3OCecKD-csL65SUFARK2OoOLRKRExs_tR_1z-xbq2SHij-h5eDFb9mgzaeoclD_uhVeFux3eeVuVNkaehj42k-0K0]--></g></svg>