<?xml version="1.0" encoding="us-ascii" standalone="no"?><svg xmlns="http://www.w3.org/2000/svg" xmlns:xlink="http://www.w3.org/1999/xlink" contentStyleType="text/css" height="909px" preserveAspectRatio="none" style="width:638px;height:909px;background:#FFFFFF;" version="1.1" viewBox="0 0 638 909" width="638px" zoomAndPan="magnify"><defs/><g><text fill="#000000" font-family="Arial" font-size="14" font-weight="bold" lengthAdjust="spacing" textLength="357" x="133.75" y="23.3608">TechnoMart &#8212; Data Pipeline (Lambda-&#1072;&#1088;&#1093;&#1080;&#1090;&#1077;&#1082;&#1090;&#1091;&#1088;&#1072;)</text><!--entity site--><g id="elem_site"><rect fill="#F1F1F1" height="52.1973" rx="2.5" ry="2.5" style="stroke:#181818;stroke-width:0.5;" width="229" x="7" y="44.0986"/><text fill="#000000" font-family="Arial" font-size="14" lengthAdjust="spacing" textLength="33" x="17" y="67.4595">&#1057;&#1072;&#1081;&#1090;</text><text fill="#000000" font-family="Arial" font-size="14" lengthAdjust="spacing" textLength="209" x="17" y="83.5581">&#1089;&#1086;&#1073;&#1099;&#1090;&#1080;&#1103; view/click/cart/purchase</text></g><!--entity erp--><g id="elem_erp"><rect fill="#F1F1F1" height="52.1973" rx="2.5" ry="2.5" style="stroke:#181818;stroke-width:0.5;" width="159" x="428" y="172.0986"/><text fill="#000000" font-family="Arial" font-size="14" lengthAdjust="spacing" textLength="58" x="438" y="195.4595">1C / ERP</text><text fill="#000000" font-family="Arial" font-size="14" lengthAdjust="spacing" textLength="139" x="438" y="211.5581">&#1082;&#1072;&#1090;&#1072;&#1083;&#1086;&#1075;, &#1079;&#1072;&#1082;&#1072;&#1079;&#1099;, &#1095;&#1077;&#1082;&#1080;</text></g><!--entity ga--><g id="elem_ga"><rect fill="#F1F1F1" height="52.1973" rx="2.5" ry="2.5" style="stroke:#181818;stroke-width:0.5;" width="185" x="208" y="172.0986"/><text fill="#000000" font-family="Arial" font-size="14" lengthAdjust="spacing" textLength="106" x="218" y="195.4595">Google Analytics</text><text fill="#000000" font-family="Arial" font-size="14" lengthAdjust="spacing" textLength="165" x="218" y="211.5581">&#1080;&#1089;&#1090;&#1086;&#1088;&#1080;&#1095;&#1077;&#1089;&#1082;&#1086;&#1077; &#1087;&#1086;&#1074;&#1077;&#1076;&#1077;&#1085;&#1080;&#1077;</text></g><!--entity kafka--><g id="elem_kafka"><path d="M75.5,177.0986 L167.5,177.0986 C172.5,177.0986 172.5,198.1973 172.5,198.1973 C172.5,198.1973 172.5,219.2959 167.5,219.2959 L75.5,219.2959 C70.5,219.2959 70.5,198.1973 70.5,198.1973 C70.5,198.1973 70.5,177.0986 75.5,177.0986 " fill="#F1F1F1" style="stroke:#181818;stroke-width:0.5;"/><path d="M167.5,177.0986 C162.5,177.0986 162.5,198.1973 162.5,198.1973 C162.5,219.2959 167.5,219.2959 167.5,219.2959 " fill="none" style="stroke:#181818;stroke-width:0.5;"/><text fill="#000000" font-family="Arial" font-size="14" lengthAdjust="spacing" textLength="36" x="75.5" y="195.4595">Kafka</text><text fill="#000000" font-family="Arial" font-size="14" lengthAdjust="spacing" textLength="82" x="75.5" y="211.5581">event stream</text></g><!--entity speed--><g id="elem_speed"><rect fill="#F1F1F1" height="68.2959" rx="2.5" ry="2.5" style="stroke:#181818;stroke-width:0.5;" width="195" x="24" y="300.0986"/><text fill="#000000" font-family="Arial" font-size="14" lengthAdjust="spacing" textLength="81" x="34" y="323.4595">Speed Layer</text><text fill="#000000" font-family="Arial" font-size="14" lengthAdjust="spacing" textLength="175" x="34" y="339.5581">Spark Structured Streaming</text><text fill="#000000" font-family="Arial" font-size="14" lengthAdjust="spacing" textLength="122" x="34" y="355.6567">(&#1086;&#1085;&#1083;&#1072;&#1081;&#1085;-&#1072;&#1075;&#1088;&#1077;&#1075;&#1072;&#1090;&#1099;)</text></g><!--entity batch--><g id="elem_batch"><rect fill="#F1F1F1" height="52.1973" rx="2.5" ry="2.5" style="stroke:#181818;stroke-width:0.5;" width="230" x="326.5" y="308.0986"/><text fill="#000000" font-family="Arial" font-size="14" lengthAdjust="spacing" textLength="76" x="336.5" y="331.4595">Batch Layer</text><text fill="#000000" font-family="Arial" font-size="14" lengthAdjust="spacing" textLength="210" x="336.5" y="347.5581">Spark: &#1086;&#1095;&#1080;&#1089;&#1090;&#1082;&#1072;, &#1076;&#1077;&#1076;&#1091;&#1087;, &#1072;&#1075;&#1088;&#1077;&#1075;&#1072;&#1090;&#1099;</text></g><!--entity emb--><g id="elem_emb"><rect fill="#F1F1F1" height="52.1973" rx="2.5" ry="2.5" style="stroke:#181818;stroke-width:0.5;" width="210" x="291.5" y="566.0986"/><text fill="#000000" font-family="Arial" font-size="14" lengthAdjust="spacing" textLength="97" x="301.5" y="589.4595">Embedding Job</text><text fill="#000000" font-family="Arial" font-size="14" lengthAdjust="spacing" textLength="190" x="301.5" y="605.5581">&#1075;&#1077;&#1085;&#1077;&#1088;&#1072;&#1094;&#1080;&#1103; &#1101;&#1084;&#1073;&#1077;&#1076;&#1076;&#1080;&#1085;&#1075;&#1086;&#1074; SKU</text></g><!--entity lake--><g id="elem_lake"><path d="M318.5,454.0986 C318.5,444.0986 400.5,444.0986 400.5,444.0986 C400.5,444.0986 482.5,444.0986 482.5,454.0986 L482.5,495.2959 C482.5,505.2959 400.5,505.2959 400.5,505.2959 C400.5,505.2959 318.5,505.2959 318.5,495.2959 L318.5,454.0986 " fill="#F1F1F1" style="stroke:#181818;stroke-width:0.5;"/><path d="M318.5,454.0986 C318.5,464.0986 400.5,464.0986 400.5,464.0986 C400.5,464.0986 482.5,464.0986 482.5,454.0986 " fill="none" style="stroke:#181818;stroke-width:0.5;"/><text fill="#000000" font-family="Arial" font-size="14" lengthAdjust="spacing" textLength="144" x="328.5" y="481.4595">Data Lake (S3 / MinIO)</text><text fill="#000000" font-family="Arial" font-size="14" lengthAdjust="spacing" textLength="127" x="328.5" y="497.5581">bronze / silver / gold</text></g><!--entity fs--><g id="elem_fs"><path d="M171.5,454.0986 C171.5,444.0986 227.5,444.0986 227.5,444.0986 C227.5,444.0986 283.5,444.0986 283.5,454.0986 L283.5,495.2959 C283.5,505.2959 227.5,505.2959 227.5,505.2959 C227.5,505.2959 171.5,505.2959 171.5,495.2959 L171.5,454.0986 " fill="#F1F1F1" style="stroke:#181818;stroke-width:0.5;"/><path d="M171.5,454.0986 C171.5,464.0986 227.5,464.0986 227.5,464.0986 C227.5,464.0986 283.5,464.0986 283.5,454.0986 " fill="none" style="stroke:#181818;stroke-width:0.5;"/><text fill="#000000" font-family="Arial" font-size="14" lengthAdjust="spacing" textLength="88" x="181.5" y="481.4595">Feature Store</text><text fill="#000000" font-family="Arial" font-size="14" lengthAdjust="spacing" textLength="92" x="181.5" y="497.5581">offline + online</text></g><!--entity vdb--><g id="elem_vdb"><path d="M296.5,704.0986 C296.5,694.0986 367.5,694.0986 367.5,694.0986 C367.5,694.0986 438.5,694.0986 438.5,704.0986 L438.5,745.2959 C438.5,755.2959 367.5,755.2959 367.5,755.2959 C367.5,755.2959 296.5,755.2959 296.5,745.2959 L296.5,704.0986 " fill="#F1F1F1" style="stroke:#181818;stroke-width:0.5;"/><path d="M296.5,704.0986 C296.5,714.0986 367.5,714.0986 367.5,714.0986 C367.5,714.0986 438.5,714.0986 438.5,704.0986 " fill="none" style="stroke:#181818;stroke-width:0.5;"/><text fill="#000000" font-family="Arial" font-size="14" lengthAdjust="spacing" textLength="122" x="306.5" y="731.4595">Vector DB (Qdrant)</text><text fill="#000000" font-family="Arial" font-size="14" lengthAdjust="spacing" textLength="109" x="306.5" y="747.5581">&#1101;&#1084;&#1073;&#1077;&#1076;&#1076;&#1080;&#1085;&#1075;&#1080; SKU</text></g><!--entity rec--><g id="elem_rec"><path d="M179.5,841.0986 C179.5,831.0986 263.5,831.0986 263.5,831.0986 C263.5,831.0986 347.5,831.0986 347.5,841.0986 L347.5,882.2959 C347.5,892.2959 263.5,892.2959 263.5,892.2959 C263.5,892.2959 179.5,892.2959 179.5,882.2959 L179.5,841.0986 " fill="#F1F1F1" style="stroke:#181818;stroke-width:0.5;"/><path d="M179.5,841.0986 C179.5,851.0986 263.5,851.0986 263.5,851.0986 C263.5,851.0986 347.5,851.0986 347.5,841.0986 " fill="none" style="stroke:#181818;stroke-width:0.5;"/><text fill="#000000" font-family="Arial" font-size="14" lengthAdjust="spacing" textLength="148" x="189.5" y="868.4595">Recommendation Store</text><text fill="#000000" font-family="Arial" font-size="14" lengthAdjust="spacing" textLength="138" x="189.5" y="884.5581">Redis (online serving)</text></g><!--link site to kafka--><g id="link_site_kafka"><path d="M121.5,96.2986 C121.5,118.2386 121.5,149.8786 121.5,171.8386 " fill="none" id="site-to-kafka" style="stroke:#181818;stroke-width:1.0;"/><polygon fill="#181818" points="121.5,176.9286,125.5,167.9286,121.5,171.9286,117.5,167.9286,121.5,176.9286" style="stroke:#181818;stroke-width:1.0;"/><text fill="#000000" font-family="Arial" font-size="13" lengthAdjust="spacing" textLength="35" x="122.5" y="139.5051">&#1089;&#1090;&#1088;&#1080;&#1084;</text></g><!--link kafka to speed--><g id="link_kafka_speed"><path d="M121.5,219.1586 C121.5,239.0586 121.5,270.0686 121.5,294.7186 " fill="none" id="kafka-to-speed" style="stroke:#181818;stroke-width:1.0;"/><polygon fill="#181818" points="121.5,299.8786,125.5,290.8786,121.5,294.8786,117.5,290.8786,121.5,299.8786" style="stroke:#181818;stroke-width:1.0;"/></g><!--link erp to batch--><g id="link_erp_batch"><path d="M495.09,224.2986 C484.02,246.7586 467.82,279.6586 456.13,303.3886 " fill="none" id="erp-to-batch" style="stroke:#181818;stroke-width:1.0;"/><polygon fill="#181818" points="453.86,308.0086,461.4305,301.7089,456.0732,303.5251,454.2569,298.1678,453.86,308.0086" style="stroke:#181818;stroke-width:1.0;"/><text fill="#000000" font-family="Arial" font-size="13" lengthAdjust="spacing" textLength="92" x="478.5" y="267.5051">&#1073;&#1072;&#1090;&#1095; (&#1074;&#1099;&#1075;&#1088;&#1091;&#1079;&#1082;&#1072;)</text></g><!--link ga to batch--><g id="link_ga_batch"><path d="M327.02,224.2986 C350.95,247.0386 386.13,280.4786 411.17,304.2786 " fill="none" id="ga-to-batch" style="stroke:#181818;stroke-width:1.0;"/><polygon fill="#181818" points="415.1,308.0086,411.3423,298.9048,411.4797,304.56,405.8245,304.6974,415.1,308.0086" style="stroke:#181818;stroke-width:1.0;"/><text fill="#000000" font-family="Arial" font-size="13" lengthAdjust="spacing" textLength="85" x="371.5" y="267.5051">&#1073;&#1072;&#1090;&#1095; (&#1080;&#1089;&#1090;&#1086;&#1088;&#1080;&#1103;)</text></g><!--link speed to lake--><g id="link_speed_lake"><path d="M169.62,368.2686 C192.6,383.3286 220.85,400.7186 247.5,414.0986 C268.34,424.5686 291.48,434.4186 313.33,442.9786 " fill="none" id="speed-to-lake" style="stroke:#181818;stroke-width:1.0;"/><polygon fill="#181818" points="318.26,444.8986,311.3259,437.9045,313.6011,443.0836,308.4219,445.3588,318.26,444.8986" style="stroke:#181818;stroke-width:1.0;"/><text fill="#000000" font-family="Arial" font-size="13" lengthAdjust="spacing" textLength="79" x="248.5" y="411.5051">near-real-time</text></g><!--link batch to lake--><g id="link_batch_lake"><path d="M460.26,360.0986 C469.69,375.8686 477.56,396.5086 469.5,414.0986 C465.03,423.8586 458.07,432.6286 450.27,440.2486 " fill="none" id="batch-to-lake" style="stroke:#181818;stroke-width:1.0;"/><polygon fill="#181818" points="446.38,443.8886,455.682,440.6525,450.0281,440.4694,450.2113,434.8155,446.38,443.8886" style="stroke:#181818;stroke-width:1.0;"/><text fill="#000000" font-family="Arial" font-size="13" lengthAdjust="spacing" textLength="157" x="473.5" y="411.5051">&#1085;&#1086;&#1088;&#1084;&#1072;&#1083;&#1080;&#1079;&#1086;&#1074;&#1072;&#1085;&#1085;&#1099;&#1077; &#1076;&#1072;&#1085;&#1085;&#1099;&#1077;</text></g><!--link lake to emb--><g id="link_lake_emb"><path d="M399.47,505.3386 C398.88,522.2986 398.15,543.5186 397.56,560.5986 " fill="none" id="lake-to-emb" style="stroke:#181818;stroke-width:1.0;"/><polygon fill="#181818" points="397.38,565.7586,401.7113,556.9133,397.5656,560.7621,393.7168,556.6164,397.38,565.7586" style="stroke:#181818;stroke-width:1.0;"/></g><!--link emb to vdb--><g id="link_emb_vdb"><path d="M390.91,618.2586 C386.44,638.3686 380.13,666.7686 375.19,689.0086 " fill="none" id="emb-to-vdb" style="stroke:#181818;stroke-width:1.0;"/><polygon fill="#181818" points="374.09,693.9486,379.952,686.0343,375.1777,689.0684,372.1436,684.294,374.09,693.9486" style="stroke:#181818;stroke-width:1.0;"/></g><!--link batch to fs--><g id="link_batch_fs"><path d="M410.65,360.1786 C390.17,376.3586 362.39,397.4186 336.5,414.0986 C321.18,423.9686 304.08,433.8086 288.06,442.5686 " fill="none" id="batch-to-fs" style="stroke:#181818;stroke-width:1.0;"/><polygon fill="#181818" points="283.58,445.0086,293.3965,444.2105,287.9695,442.6144,289.5657,437.1874,283.58,445.0086" style="stroke:#181818;stroke-width:1.0;"/><text fill="#000000" font-family="Arial" font-size="13" lengthAdjust="spacing" textLength="91" x="357.5" y="411.5051">offline-&#1087;&#1088;&#1080;&#1079;&#1085;&#1072;&#1082;&#1080;</text></g><!--link speed to fs--><g id="link_speed_fs"><path d="M111.84,368.2486 C109.4,383.2086 109.41,400.5286 117.5,414.0986 C128.52,432.5786 147.49,445.6686 166.6,454.7686 " fill="none" id="speed-to-fs" style="stroke:#181818;stroke-width:1.0;"/><polygon fill="#181818" points="171.46,456.9986,164.9498,449.6083,166.916,454.9124,161.6119,456.8786,171.46,456.9986" style="stroke:#181818;stroke-width:1.0;"/><text fill="#000000" font-family="Arial" font-size="13" lengthAdjust="spacing" textLength="92" x="118.5" y="411.5051">online-&#1087;&#1088;&#1080;&#1079;&#1085;&#1072;&#1082;&#1080;</text></g><!--link fs to rec--><g id="link_fs_rec"><path d="M230.27,505.1686 C236.81,575.1586 253.22,750.6686 260.24,825.6986 " fill="none" id="fs-to-rec" style="stroke:#181818;stroke-width:1.0;"/><polygon fill="#181818" points="260.73,830.9286,263.8891,821.6002,260.2722,825.9496,255.9227,822.3327,260.73,830.9286" style="stroke:#181818;stroke-width:1.0;"/><text fill="#000000" font-family="Arial" font-size="13" lengthAdjust="spacing" textLength="118" x="246.5" y="661.5051">&#1087;&#1088;&#1077;&#1076;&#1088;&#1072;&#1089;&#1095;&#1105;&#1090; &#1074;&#1099;&#1076;&#1072;&#1095;&#1080;</text></g><!--link vdb to rec--><g id="link_vdb_rec"><path d="M344.68,755.2286 C328.35,776.4186 306.36,804.9686 289.38,827.0086 " fill="none" id="vdb-to-rec" style="stroke:#181818;stroke-width:1.0;"/><polygon fill="#181818" points="286.27,831.0386,294.9377,826.362,289.3268,827.0819,288.6069,821.471,286.27,831.0386" style="stroke:#181818;stroke-width:1.0;"/><text fill="#000000" font-family="Arial" font-size="13" lengthAdjust="spacing" textLength="151" x="319.5" y="798.5051">ANN-&#1087;&#1086;&#1080;&#1089;&#1082; &#1087;&#1086;&#1093;&#1086;&#1078;&#1080;&#1093; SKU</text></g><!--SRC=[TLJBRjD05DtxAqPT9Q9HXDXrWTJI5a4Vb0POPJEn9uaLUnp6arHbrQOgMKIeGk87-8EqIOWfJVCBCx_0bt3kk5GkAWlBupltdhdtd3FMeOu4UoVyjapskDBizyatjiarPmTXLqIX5Aoqo-D6m2jcR4_ikSdimCpCjHtOCtjYncNFIpkXx7B5OvQsUP0SXRB5cZnAHM4d44tUY_Hs8lK-ZmLRLo6FF4y9NtFPGWihvhiPcvzsK9VsrDoQIpl2GPczOFrG75NzAFGxLHyTLhizvRTvAbOOJraQQb54UVg2LTdMuK5TcciqF03cBw1DLfcPOusOcTlHAhD36i9a3aIeRX7ZPPBGUrtow5Y7VWgip9u2wnO3PrI93g-1EcDcYTSLeAPu5YOpCmVOufxtiITw0DlXpGwlIz4NKhDKAy5ZbzAX-0C2QbqX0hRBZuMgonfewx2QLZrVznJYDLSAQkkoX3CN60jqcGLaCHFqDJCJcjUEoZal15P4t-3QRpz0NsCOQ7Wt6eW1HJJ5r9wP9TR_m3hK1e4KKRVYXWW24lnrqW1F4qV3Z8nXFplrx1TpOouTGrFmiq0A66ErdVSvzN73ymBuhG55sOfptYxlm7MrPr1oBvIltfJhig4I-KaWa8PHNoWiMaaKE8G8sGM4RS69CF2LA56NIRFfJFo49P8MhgIP5We-O9f4iSqDLdeRA2urZdkawUo-vNxGA9GV2Z-9Oo4H2HFvzzX34OGfA-LdibIeFZZAbG5xk3AmBQjKdkSsO6kCH21tcHil3z5cBYBSwRuS-KX5OwJ8a9NCbHsHIb1iJWgMlHR_NshHmHTqQPtRA9a8HAuKN5NWiQYYmrXuEKHX7onGzOsxKHaE9EEF4LsWYHbvv_x3SoLKI_BYSMlYhG3RJ05w9q_5BDtmSo3G9SqAxULvyl4qR58EEAKEbywmK-U-KpkqN-s0EOxG6pdTGmk5_FNz_Ogxm1dTPtUNyN-xDJyGE2Uv_m00]--></g></svg>