<?xml version="1.0" encoding="us-ascii" standalone="no"?><svg xmlns="http://www.w3.org/2000/svg" xmlns:xlink="http://www.w3.org/1999/xlink" contentStyleType="text/css" height="588px" preserveAspectRatio="none" style="width:682px;height:588px;background:#FFFFFF;" version="1.1" viewBox="0 0 682 588" width="682px" zoomAndPan="magnify"><defs/><g><text fill="#000000" font-family="Arial" font-size="14" font-weight="bold" lengthAdjust="spacing" textLength="499" x="84.75" y="23.3608">TechnoMart &#8212; Feature Store: &#1077;&#1076;&#1080;&#1085;&#1099;&#1081; &#1080;&#1089;&#1090;&#1086;&#1095;&#1085;&#1080;&#1082; &#1087;&#1088;&#1080;&#1079;&#1085;&#1072;&#1082;&#1086;&#1074; (&#1072;&#1085;&#1090;&#1080;-skew)</text><!--entity defs--><g id="elem_defs"><rect fill="#F1F1F1" height="68.2959" rx="2.5" ry="2.5" style="stroke:#181818;stroke-width:0.5;" width="208" x="192" y="44.0986"/><text fill="#000000" font-family="Arial" font-size="14" lengthAdjust="spacing" textLength="162" x="202" y="67.4595">&#1054;&#1087;&#1088;&#1077;&#1076;&#1077;&#1083;&#1077;&#1085;&#1080;&#1103; &#1087;&#1088;&#1080;&#1079;&#1085;&#1072;&#1082;&#1086;&#1074;</text><text fill="#000000" font-family="Arial" font-size="14" lengthAdjust="spacing" textLength="188" x="202" y="83.5581">&#1077;&#1076;&#1080;&#1085;&#1099;&#1081; &#1082;&#1086;&#1076; &#1090;&#1088;&#1072;&#1085;&#1089;&#1092;&#1086;&#1088;&#1084;&#1072;&#1094;&#1080;&#1081;</text><text fill="#000000" font-family="Arial" font-size="14" lengthAdjust="spacing" textLength="123" x="202" y="99.6567">(feature definitions)</text></g><!--entity off--><g id="elem_off"><path d="M6,198.0986 C6,188.0986 93,188.0986 93,188.0986 C93,188.0986 180,188.0986 180,198.0986 L180,255.3945 C180,265.3945 93,265.3945 93,265.3945 C93,265.3945 6,265.3945 6,255.3945 L6,198.0986 " fill="#F1F1F1" style="stroke:#181818;stroke-width:0.5;"/><path d="M6,198.0986 C6,208.0986 93,208.0986 93,208.0986 C93,208.0986 180,208.0986 180,198.0986 " fill="none" style="stroke:#181818;stroke-width:0.5;"/><text fill="#000000" font-family="Arial" font-size="14" lengthAdjust="spacing" textLength="79" x="16" y="225.4595">Offline Store</text><text fill="#000000" font-family="Arial" font-size="14" lengthAdjust="spacing" textLength="154" x="16" y="241.5581">&#1080;&#1089;&#1090;&#1086;&#1088;&#1080;&#1095;&#1077;&#1089;&#1082;&#1080;&#1077; &#1087;&#1088;&#1080;&#1079;&#1085;&#1072;&#1082;&#1080;</text><text fill="#000000" font-family="Arial" font-size="14" lengthAdjust="spacing" textLength="100" x="16" y="257.6567">(&#1076;&#1083;&#1103; &#1086;&#1073;&#1091;&#1095;&#1077;&#1085;&#1080;&#1103;)</text></g><!--entity on--><g id="elem_on"><path d="M198,305.0986 C198,295.0986 303,295.0986 303,295.0986 C303,295.0986 408,295.0986 408,305.0986 L408,362.3945 C408,372.3945 303,372.3945 303,372.3945 C303,372.3945 198,372.3945 198,362.3945 L198,305.0986 " fill="#F1F1F1" style="stroke:#181818;stroke-width:0.5;"/><path d="M198,305.0986 C198,315.0986 303,315.0986 303,315.0986 C303,315.0986 408,315.0986 408,305.0986 " fill="none" style="stroke:#181818;stroke-width:0.5;"/><text fill="#000000" font-family="Arial" font-size="14" lengthAdjust="spacing" textLength="79" x="208" y="332.4595">Online Store</text><text fill="#000000" font-family="Arial" font-size="14" lengthAdjust="spacing" textLength="111" x="208" y="348.5581">&#1089;&#1074;&#1077;&#1078;&#1080;&#1077; &#1087;&#1088;&#1080;&#1079;&#1085;&#1072;&#1082;&#1080;</text><text fill="#000000" font-family="Arial" font-size="14" lengthAdjust="spacing" textLength="190" x="208" y="364.6567">(low-latency, &#1076;&#1083;&#1103; &#1080;&#1085;&#1092;&#1077;&#1088;&#1077;&#1085;&#1089;&#1072;)</text></g><!--entity train--><g id="elem_train"><rect fill="#F1F1F1" height="52.1973" rx="2.5" ry="2.5" style="stroke:#181818;stroke-width:0.5;" width="139" x="14.5" y="402.0986"/><text fill="#000000" font-family="Arial" font-size="14" lengthAdjust="spacing" textLength="119" x="24.5" y="425.4595">&#1054;&#1073;&#1091;&#1095;&#1077;&#1085;&#1080;&#1077; &#1084;&#1086;&#1076;&#1077;&#1083;&#1080;</text><text fill="#000000" font-family="Arial" font-size="14" lengthAdjust="spacing" textLength="57" x="24.5" y="441.5581">(training)</text></g><!--entity serve--><g id="elem_serve"><rect fill="#F1F1F1" height="52.1973" rx="2.5" ry="2.5" style="stroke:#181818;stroke-width:0.5;" width="188" x="108" y="530.0986"/><text fill="#000000" font-family="Arial" font-size="14" lengthAdjust="spacing" textLength="126" x="118" y="553.4595">&#1048;&#1085;&#1092;&#1077;&#1088;&#1077;&#1085;&#1089; / serving</text><text fill="#000000" font-family="Arial" font-size="14" lengthAdjust="spacing" textLength="168" x="118" y="569.5581">(recommendation pipeline)</text></g><g id="elem_GMN12"><path d="M360.5,206.5986 L360.5,246.4961 L675.5,246.4961 L675.5,216.5986 L665.5,206.5986 L360.5,206.5986 " fill="#FEFFDD" style="stroke:#181818;stroke-width:0.5;"/><path d="M665.5,206.5986 L665.5,216.5986 L675.5,216.5986 L665.5,206.5986 " fill="#FEFFDD" style="stroke:#181818;stroke-width:1.0;"/><text fill="#000000" font-family="Arial" font-size="13" lengthAdjust="spacing" textLength="294" x="366.5" y="224.0051">&#1054;&#1076;&#1085;&#1080; &#1080; &#1090;&#1077; &#1078;&#1077; &#1086;&#1087;&#1088;&#1077;&#1076;&#1077;&#1083;&#1077;&#1085;&#1080;&#1103; &#1080; &#1082;&#1086;&#1076; &#1090;&#1088;&#1072;&#1085;&#1089;&#1092;&#1086;&#1088;&#1084;&#1072;&#1094;&#1080;&#1081;</text><text fill="#000000" font-family="Arial" font-size="13" lengthAdjust="spacing" textLength="282" x="366.5" y="238.9539">&#1076;&#1083;&#1103; offline &#1080; online =&gt; &#1085;&#1077;&#1090; Training-Serving Skew</text></g><!--link defs to off--><g id="link_defs_off"><path d="M191.79,94.1186 C161.57,103.3386 131.08,118.1886 110,142.0986 C100.24,153.1686 95.51,168.2886 93.36,182.6186 " fill="none" id="defs-to-off" style="stroke:#181818;stroke-width:1.0;"/><polygon fill="#181818" points="92.68,187.8586,97.8042,179.4478,93.323,182.9002,89.8707,178.4189,92.68,187.8586" style="stroke:#181818;stroke-width:1.0;"/><text fill="#000000" font-family="Arial" font-size="13" lengthAdjust="spacing" textLength="141" x="111" y="155.5051">&#1084;&#1072;&#1090;&#1077;&#1088;&#1080;&#1072;&#1083;&#1080;&#1079;&#1072;&#1094;&#1080;&#1103; (batch)</text></g><!--link defs to on--><g id="link_defs_on"><path d="M291.6,112.3886 C290.53,121.9586 289.54,132.4286 289,142.0986 C286.18,192.9586 291.79,251.3686 296.72,289.9586 " fill="none" id="defs-to-on" style="stroke:#181818;stroke-width:1.0;"/><polygon fill="#181818" points="297.38,295.0286,300.1893,285.5889,296.737,290.0702,292.2558,286.6178,297.38,295.0286" style="stroke:#181818;stroke-width:1.0;"/><text fill="#000000" font-family="Arial" font-size="13" lengthAdjust="spacing" textLength="197" x="290" y="155.5051">&#1084;&#1072;&#1090;&#1077;&#1088;&#1080;&#1072;&#1083;&#1080;&#1079;&#1072;&#1094;&#1080;&#1103; (stream + batch)</text></g><!--link off to train--><g id="link_off_train"><path d="M65.95,265.2586 C60.62,274.5786 55.81,284.8486 53,295.0986 C43.96,328.1086 44.31,338.9986 53,372.0986 C55.26,380.6986 59.2,389.3786 63.53,397.2186 " fill="none" id="off-to-train" style="stroke:#181818;stroke-width:1.0;"/><polygon fill="#181818" points="66.27,401.9786,65.2326,392.1846,63.7693,397.6489,58.305,396.1856,66.27,401.9786" style="stroke:#181818;stroke-width:1.0;"/><text fill="#000000" font-family="Arial" font-size="13" lengthAdjust="spacing" textLength="125" x="54" y="339.0051">point-in-time &#1074;&#1099;&#1073;&#1086;&#1088;&#1082;&#1072;</text></g><!--link on to serve--><g id="link_on_serve"><path d="M303.01,372.4086 C301.4,407.7886 294.72,460.9186 271,500.0986 C264.89,510.1886 256.21,519.1886 247.07,526.8286 " fill="none" id="on-to-serve" style="stroke:#181818;stroke-width:1.0;"/><polygon fill="#181818" points="243.12,530.0286,252.6331,527.4789,247.0076,526.8843,247.6021,521.2588,243.12,530.0286" style="stroke:#181818;stroke-width:1.0;"/><text fill="#000000" font-family="Arial" font-size="13" lengthAdjust="spacing" textLength="188" x="302" y="433.5051">&#1090;&#1077; &#1078;&#1077; &#1087;&#1088;&#1080;&#1079;&#1085;&#1072;&#1082;&#1080;, &#1095;&#1090;&#1086; &#1074; &#1086;&#1073;&#1091;&#1095;&#1077;&#1085;&#1080;&#1080;</text></g><!--link train to serve--><g id="link_train_serve"><path d="M96.16,454.3986 C103.79,468.7386 114.54,486.4886 127,500.0986 C135.95,509.8786 146.88,519.0386 157.59,526.9786 " fill="none" id="train-to-serve" style="stroke:#181818;stroke-width:1.0;stroke-dasharray:7.0,7.0;"/><polygon fill="#181818" points="161.83,530.0686,156.9076,521.5381,157.7876,527.1261,152.1996,528.006,161.83,530.0686" style="stroke:#181818;stroke-width:1.0;"/><text fill="#000000" font-family="Arial" font-size="13" lengthAdjust="spacing" textLength="138" x="128" y="497.5051">&#1089;&#1086;&#1075;&#1083;&#1072;&#1089;&#1086;&#1074;&#1072;&#1085;&#1085;&#1072;&#1103; &#1084;&#1086;&#1076;&#1077;&#1083;&#1100;</text></g><!--link defs to GMN12--><g id="link_defs_GMN12"><path d="M400.04,91.3486 C434.68,100.2986 470.81,115.6886 496,142.0986 C512.55,159.4586 517.01,187.7386 518.02,206.4986 " fill="none" id="defs-GMN12" style="stroke:#181818;stroke-width:1.0;stroke-dasharray:7.0,7.0;"/></g><!--SRC=[XLCnRjj04EpvYeKh2J6Tta0Cf76Nk91BDoVfA1rCtGdaEK8wIJ7Y8W7If4YLDyYAbD2IfNpXxWj-IMQFT40f3bmGE1vtPsPdbbRPLDAvxFIrUICoIm_ZhtGgXRtA9BMioUGnkQLRkC9j_2TtHwxm4pzrMt_ZDhXSaVljnpZymklChTpMpQc1qmP5HPnVob4pYl9BfOSY4mFA-w9hHahtA15fBcjVkZ8HLwazDTg-5GD9hpCbqYZAPCSAtOF80_SzSB6QfLlZWG3_vGa15tfNCbyko4zHny8c_Xhwn-xUpVn7LDrTw4PIZGmLIYkhZCwR1oHoliYZg2kiQ8iS8iwI95MwyWP4ZtP00YnP-WdO2hVSLrM00vBMh7VhRlq7BYu7A7bCajHPT9q4e7DK__mVS6f6SIgir9ttX_J8mjDVGn0RXfdThEBH-vxMn33yFPiL36PecmdueNjbStZRQV-soq8lAPVPEpIW5tLcC90QOy5F6ggXvAbAA2wJC1RsKXoVyFnqJ26JQS0hCDuw31fImaYDjh2TVhFMevzjoMqciLmlgEfb6cuDaw1xQ9IsiTAnLTWvDyV2t8OqLsuM0PzhWrJKCWiXXNypE2H_mri0WBruNH6LL4T7DQ09Ydv0wYoSvhoL3CMn_RNVVuuYRQoajh7M361GkOj4o6p1sCYuhcdxzDzHFB__Z5bkZQcs6rscNC5N9mIafP_IURKASQjCc5hukIF4Iopp3m00]--></g></svg>